<svg width="71" height="71" viewBox="0 0 71 71" fill="none" xmlns="http://www.w3.org/2000/svg">
<path fill-rule="evenodd" clip-rule="evenodd" d="M31.976 62.7391C32.0007 62.0861 31.4912 61.5367 30.8381 61.512H30.8377C15.3996 60.939 3.00877 48.5704 2.40808 33.1333H7.1C7.7535 33.1333 8.28333 32.6035 8.28333 31.95C8.28333 31.2965 7.7535 30.7667 7.1 30.7667H2.40808C3.00019 15.3569 15.3567 3.00079 30.7667 2.40927V5.91667C30.7667 6.57016 31.2965 7.1 31.95 7.1C32.6035 7.1 33.1333 6.57016 33.1333 5.91667V2.40927C48.3324 2.99709 60.5994 15.0325 61.4765 30.2176L56.8615 25.6026C56.3915 25.1485 55.6424 25.1615 55.1883 25.6316C54.7454 26.0901 54.7454 26.8171 55.1883 27.2758L61.7937 33.8812C61.9181 34.0318 62.0784 34.1485 62.2599 34.2208C62.3062 34.2347 62.3532 34.2463 62.4007 34.2551C62.4819 34.2844 62.5659 34.3047 62.6516 34.3155H62.6859H62.719C62.8091 34.3087 62.8982 34.2912 62.9841 34.2634C63.0328 34.2575 63.081 34.2485 63.1285 34.2362C63.2887 34.1792 63.4345 34.088 63.5557 33.9688L70.251 27.2758C70.7049 26.8058 70.692 26.0567 70.222 25.6026C69.7634 25.1597 69.0364 25.1597 68.5777 25.6026L63.8479 30.3288C63.0026 13.3672 49.0166 0.0415646 32.034 0.0165667C32.0198 0.0159968 32.0066 0.0121339 31.9935 0.00828175L31.9935 0.00827823C31.9794 0.00413231 31.9653 0 31.95 0C31.9347 0 31.9206 0.00413219 31.9065 0.00827804C31.8934 0.0121314 31.8802 0.0159966 31.866 0.0165667C14.2861 0.0406771 0.0406771 14.2861 0.0165667 31.866C0.0165667 31.8808 0.0124249 31.8944 0.00828313 31.908C0.00414153 31.9216 0 31.9352 0 31.95C0 31.9653 0.0041322 31.9794 0.00827806 31.9935C0.0121314 32.0066 0.0159966 32.0198 0.0165667 32.034C0.0460021 49.1801 13.6159 63.24 30.7501 63.8775H30.7939C31.4298 63.8774 31.9519 63.3746 31.976 62.7391ZM34.507 68.6334H48.5165C49.17 68.6334 49.6998 69.1632 49.6998 69.8167C49.6998 70.4702 49.17 71 48.5165 71H31.9498C31.6695 70.9999 31.3986 70.9003 31.1848 70.719C30.6865 70.2961 30.6252 69.5494 31.0481 69.0511L45.6765 51.8194C47.3906 49.2585 46.8209 45.8067 44.3748 43.9325C43.1675 43.0654 41.7187 42.5991 40.2324 42.5993C36.3113 42.5997 33.1327 45.7788 33.1332 49.7C33.1332 50.3535 32.6033 50.8834 31.9498 50.8834C31.2963 50.8834 30.7665 50.3535 30.7665 49.7C30.7662 47.7175 31.3884 45.785 32.5452 44.1749C35.5958 39.929 41.511 38.96 45.757 42.0107C49.249 44.6494 50.0652 49.5595 47.6148 53.1861C47.5892 53.2243 47.5616 53.261 47.532 53.2962L34.507 68.6334ZM66.2667 63.9H69.8167C70.4702 63.9 71 64.4298 71 65.0833C71 65.7368 70.4702 66.2667 69.8167 66.2667H66.2667V69.8167C66.2667 70.4702 65.7368 71 65.0833 71C64.4298 71 63.9 70.4702 63.9 69.8167V66.2667H48.5167C48.2742 66.2665 48.0379 66.192 47.8392 66.0531C47.3036 65.6787 47.173 64.9409 47.5475 64.4053L64.1142 40.7386C64.3355 40.4227 64.6968 40.2345 65.0825 40.2342C65.736 40.2338 66.2662 40.7632 66.2667 41.4167V63.9ZM50.7887 63.9H63.9V45.1702L50.7887 63.9ZM46.1749 16.0519C46.6369 15.59 47.386 15.59 47.8481 16.0519C48.31 16.514 48.31 17.263 47.8481 17.7251L35.1438 30.4294C35.8026 31.7811 35.5277 33.4022 34.4599 34.461C33.3978 35.5237 31.7811 35.8013 30.4254 35.1537C28.6592 34.3101 27.9113 32.1943 28.755 30.4282L22.746 24.4193C22.3032 23.9607 22.3032 23.2337 22.746 22.7752C23.2 22.3051 23.9492 22.2921 24.4193 22.746L30.4401 28.7668C31.4006 28.3385 32.498 28.3385 33.4588 28.7668L46.1749 16.0519ZM32.7866 32.7866L32.7869 32.7863C33.2489 32.3242 33.2489 31.5749 32.7866 31.1128C32.3244 30.6508 31.5752 30.6508 31.1131 31.1131C30.6511 31.5753 30.6511 32.3245 31.1134 32.7866C31.5814 33.2341 32.3186 33.2341 32.7866 32.7866Z" fill="#C0E570"/>
</svg>
