<svg width="72" height="72" viewBox="0 0 72 72" fill="none" xmlns="http://www.w3.org/2000/svg">
<path fill-rule="evenodd" clip-rule="evenodd" d="M43.2494 3.05352C42.7628 3.37387 42.6282 4.02806 42.9486 4.51448C43.2691 5.00105 43.9234 5.13549 44.4095 4.81528C55.2434 -2.31992 70.0022 5.44079 69.8901 18.7215C69.7819 31.5599 55.3823 39.4722 44.4818 32.4125C43.9158 32.0459 43.2083 31.9946 42.5891 32.2754L37.3123 34.6686L39.735 29.327C39.9992 28.744 39.9468 28.072 39.5949 27.5298C35.6062 21.3822 36.195 13.394 40.9282 7.88106C41.3076 7.43922 41.257 6.77321 40.815 6.39381C40.373 6.01412 39.707 6.0653 39.3278 6.50701C33.9718 12.7453 33.3669 21.7082 37.7595 28.576L34.6715 35.3843C34.1174 36.6058 35.3745 37.8636 36.5965 37.3095L43.3989 34.2243C55.8144 42.1936 71.8781 33.1207 71.9993 18.7393C72.1249 3.83329 55.4997 -5.01487 43.2494 3.05352ZM46.4732 15.8707C44.7615 15.7062 43.3297 17.0558 43.3297 18.7206C43.3298 20.2916 44.607 21.584 46.1932 21.584C47.7732 21.584 49.0566 20.2979 49.0566 18.7206C49.0566 17.2479 47.9392 16.0165 46.4732 15.8707ZM46.1198 19.4709C45.7248 19.4304 45.4392 19.0919 45.4392 18.7203C45.4393 18.29 45.8128 17.9251 46.2665 17.9698C46.5499 17.9987 46.7013 18.1609 46.7469 18.2097C46.7541 18.2174 46.7586 18.2223 46.7606 18.2234C46.8785 18.3727 46.9471 18.5236 46.9471 18.7203C46.9471 19.1594 46.5662 19.514 46.1198 19.4709ZM56.1194 18.4353C55.9804 17.0767 54.9084 16.0057 53.5501 15.8707C51.8758 15.7083 50.4066 17.017 50.4066 18.7207C50.4067 20.2756 51.6638 21.5841 53.2701 21.5841C54.9391 21.5839 56.287 20.1458 56.1194 18.4353ZM53.3462 19.4706C52.9162 19.5136 52.5161 19.1777 52.5161 18.7204C52.5161 18.3511 52.8038 18.0094 53.1941 17.9701C53.64 17.9268 54.0239 18.2804 54.0239 18.7204C54.024 19.0805 53.7479 19.4304 53.3462 19.4706ZM57.4838 18.7206C57.4838 17.2522 58.5954 16.0168 60.0647 15.871C61.759 15.7065 63.2105 17.0355 63.2106 18.7206C63.2106 20.2743 61.9532 21.5841 60.3472 21.5841C58.7513 21.5841 57.4839 20.2828 57.4838 18.7206ZM59.5935 18.7204C59.5935 19.1152 59.918 19.4742 60.3474 19.4742C60.7625 19.4742 61.1013 19.1349 61.1013 18.7204C61.1013 18.3352 60.8065 18.0091 60.4206 17.9698C59.9782 17.9261 59.5933 18.2813 59.5935 18.7204ZM58.0211 57.2612L60.099 59.3391C61.2718 60.5119 61.2718 62.4202 60.0994 63.5934C59.2909 64.4019 58.0751 64.6992 56.9445 64.2897C56.0852 65.1015 55.4463 65.7638 54.9193 66.3101C53.79 67.4809 53.1746 68.1188 52.0059 68.5537C52.0302 68.8515 51.929 69.1576 51.7011 69.3855C51.2893 69.7973 50.6217 69.7974 50.2095 69.3855L49.704 68.88C46.3886 68.8499 43.1003 69.5052 39.9288 70.833C36.9059 72.0983 33.4271 72.277 30.4612 70.9116C23.6622 67.7914 13.9513 60.3126 6.88318 50.8932C6.53359 50.4273 6.62781 49.7661 7.0937 49.4165C7.55959 49.0669 8.22082 49.1611 8.57041 49.627C15.027 58.2316 23.4212 65.0078 31.0804 68.8687C33.5804 70.1246 36.5439 69.9625 39.1142 68.8871C41.8933 67.7234 44.7569 67.0375 47.6576 66.8339L39.4903 58.6666C39.2447 59.0249 38.9591 59.3514 38.6342 59.6396C36.0459 61.9359 32.4636 61.9523 29.8514 59.949C26.5268 57.3993 23.2811 54.6218 20.2044 51.6935C19.2096 50.7436 15.1951 46.2904 11.9122 42.0099C9.41684 38.7557 10.3185 34.342 13.1947 32.3709L5.02749 24.2036C4.82386 27.1033 4.13775 29.9676 2.97421 32.7473C1.85877 35.412 1.81925 38.2445 2.86593 40.5179C3.23803 41.3296 4.38159 43.4487 5.79924 45.6508C6.11452 46.1406 5.97291 46.7933 5.48326 47.1086C4.99374 47.4234 4.34095 47.2825 4.02553 46.7926C2.90981 45.0592 1.92852 43.3561 1.10909 41.7305C-0.415991 38.702 -0.296459 35.098 1.02866 31.9325C2.3563 28.7604 3.01148 25.4735 2.98138 22.1572L2.32832 21.5042C1.91643 21.0923 1.91643 20.4246 2.32832 20.0125C2.60521 19.7356 2.9977 19.6459 3.35039 19.7413C3.61279 19.0833 4.0095 18.479 4.52799 17.9607L7.50784 14.9808C7.00553 13.8721 7.20606 12.5203 8.11591 11.6102C9.28873 10.4371 11.1972 10.4372 12.3703 11.61L24.9799 24.2195C26.1527 25.3925 26.1527 27.3007 24.9799 28.4737C24.078 29.3751 22.7368 29.5973 21.6078 29.0832L18.6291 32.0619C18.0863 32.6044 17.4414 33.0142 16.734 33.2773C16.7596 33.5766 16.6585 33.8847 16.4294 34.1138C16.0175 34.5255 15.35 34.5257 14.9378 34.1138L14.73 33.9059C12.667 34.99 11.6879 38.2506 13.5862 40.7261C16.0856 43.985 18.8078 47.1667 21.6777 50.1835C24.6948 53.0535 27.8765 55.7759 31.1353 58.275C32.9716 59.6833 35.4264 59.6655 37.2343 58.0613C37.5259 57.8026 37.7675 57.4886 37.9553 57.1312L37.5998 56.7757C37.1879 56.3638 37.1879 55.6962 37.5998 55.2841C37.8782 55.0058 38.2735 54.9164 38.6277 55.0144C39.0673 53.9113 39.6586 53.34 40.772 52.2642C41.2956 51.7583 41.9347 51.1407 42.7278 50.3039C42.1012 49.1614 42.2691 47.6962 43.2356 46.7296C44.4114 45.5538 46.3143 45.5542 47.4898 46.7296L54.5409 53.7807C54.9528 54.1927 54.9528 54.8604 54.5409 55.2725C54.129 55.6842 53.4614 55.6842 53.0493 55.2725L45.9982 48.2213C45.6469 47.8701 45.0787 47.8701 44.7275 48.2212C44.3771 48.5716 44.3771 49.1417 44.7275 49.492L57.3369 62.1015C57.6872 62.4521 58.2574 62.4518 58.6077 62.1015C58.958 61.7512 58.958 61.181 58.6076 60.8307L56.5298 58.7529C56.1178 58.341 56.1178 57.6732 56.5297 57.2613C56.9416 56.8493 57.6094 56.8494 58.0211 57.2612ZM10.8786 13.1016C10.5285 12.7512 9.95796 12.7512 9.60781 13.1016C9.25765 13.4518 9.25751 14.0212 9.6071 14.3718L9.60781 14.3723L22.2173 26.9817L22.218 26.9824C22.5696 27.3334 23.1374 27.3322 23.488 26.9817C23.8384 26.6314 23.8384 26.0613 23.488 25.711L10.8786 13.1016ZM6.0196 19.4524C5.51152 19.9604 5.19793 20.6053 5.11116 21.3039L15.2929 31.4853C15.9691 31.3416 16.5423 31.165 17.1375 30.57L19.9798 27.7278L8.86179 16.61L6.0196 19.4524ZM50.557 66.7498C51.2566 66.6628 51.9006 66.35 52.4089 65.8417L55.2512 62.9993L44.1334 51.8814L41.291 54.7239C40.6667 55.3481 40.5106 55.9342 40.3757 56.5685L50.557 66.7498Z" fill="#C0E570"/>
</svg>
