<svg width="78" height="79" viewBox="0 0 78 79" fill="none" xmlns="http://www.w3.org/2000/svg">
<path fill-rule="evenodd" clip-rule="evenodd" d="M78 60.7177C78 61.3568 77.3878 61.8747 76.6323 61.8747C75.877 61.8747 75.2647 61.3568 75.2647 60.7177V56.5222C75.2647 55.4673 74.2504 54.6092 73.0035 54.6092H51.4304C50.1834 54.6092 49.1692 55.4673 49.1692 56.5222V74.773C49.1692 75.8279 50.1834 76.686 51.4304 76.686H73.0035C74.2504 76.686 75.2647 75.8279 75.2647 74.773V65.3441C75.2647 64.7049 75.8768 64.187 76.6323 64.187C77.3878 64.187 78 64.7049 78 65.3441V74.773C78 77.1037 75.7585 79 73.0035 79H51.4304C48.6754 79 46.4339 77.1037 46.4339 74.773V72.7953H22.1333C20.2645 72.7953 18.7441 71.509 18.7441 69.928V67.2191H11.3018C10.5463 67.2191 9.93413 66.7012 9.93413 66.062C9.93413 65.4229 10.5463 64.905 11.3018 64.905H18.7441V61.157H3.64746C3.14471 61.157 2.73587 61.5029 2.73587 61.9281V64.134C2.73587 64.5591 3.14471 64.905 3.64746 64.905H5.83298C6.58847 64.905 7.20064 65.4229 7.20064 66.062C7.20064 66.7012 6.58847 67.2191 5.83298 67.2191H3.64691C1.63609 67.2191 0 65.8351 0 64.134V61.9281C0 61.1987 0.302344 60.5285 0.804548 59.9999C0.302344 59.471 0 58.801 0 58.0717V55.8659C0 54.3372 1.32225 53.0684 3.04915 52.8259C2.96454 52.5653 2.91549 52.2924 2.91549 52.0095V49.8036C2.91549 49.5206 2.96454 49.2477 3.04915 48.9873C1.32244 48.7448 0.000182254 47.4758 0.000182254 45.9473V43.7414C0.000182254 42.2128 1.32244 40.9439 3.04933 40.7014C2.96472 40.4408 2.91567 40.1679 2.91567 39.885V37.6792C2.91567 35.9781 4.55175 34.594 6.56258 34.594H18.7439V2.86741C18.7439 1.2863 20.2643 0 22.1331 0H34.4783C35.2338 0 35.846 0.517882 35.846 1.15702C35.846 1.79616 35.2338 2.31404 34.4783 2.31404H22.1331C21.7724 2.31404 21.4792 2.56226 21.4792 2.86741V69.9276C21.4792 70.2327 21.7724 70.4808 22.1331 70.4808H46.4337V67.7718H34.833C34.0775 67.7718 33.4654 67.2539 33.4654 66.6148C33.4654 63.1551 30.1385 60.3406 26.0492 60.3406C25.2937 60.3406 24.6815 59.8228 24.6815 59.1836V14.7338H24.5915C23.9043 14.7338 23.3474 14.2635 23.3474 13.683C23.3474 13.1026 23.9043 12.6323 24.5915 12.6323H24.9518C25.0588 12.6323 25.1625 12.6437 25.2615 12.6651C25.4842 12.5322 25.7559 12.4542 26.0492 12.4542C30.1385 12.4542 33.4654 9.63968 33.4654 6.18019C33.4654 5.54105 34.0775 5.02317 34.833 5.02317H53.2636C54.0191 5.02317 54.6313 5.54105 54.6313 6.18019C54.6313 9.63968 57.9581 12.4542 62.0476 12.4542C62.8031 12.4542 63.4153 12.9721 63.4153 13.6112V41.003H65.5734C65.9279 41.003 66.2761 41.0253 66.6176 41.0654V2.86741C66.6176 2.56226 66.3242 2.31404 65.9635 2.31404H39.9468C39.1913 2.31404 38.5791 1.79616 38.5791 1.15702C38.5791 0.517882 39.1913 0 39.9468 0H65.9635C67.8325 0 69.3529 1.2863 69.3529 2.86741V41.8652C71.6023 42.9715 73.1191 45.0313 73.1191 47.3866V52.2977C75.8209 52.35 78 54.2242 78 56.5222V60.7177ZM5.65117 49.8034V52.0093C5.65117 52.4346 6.06001 52.7805 6.56276 52.7805H18.7441V49.0324H6.56276C6.06001 49.0324 5.65117 49.3783 5.65117 49.8034ZM6.56276 36.908C6.06001 36.908 5.65117 37.2539 5.65117 37.6792V39.885C5.65117 40.3103 6.06001 40.6562 6.56276 40.6562H18.7441V36.908H6.56276ZM2.73587 43.7414V45.9473C2.73587 46.3725 3.14471 46.7183 3.64746 46.7183H18.7441V42.9702H3.64746C3.14471 42.9702 2.73587 43.3161 2.73587 43.7414ZM2.73587 58.0715C2.73587 58.4968 3.14471 58.8427 3.64746 58.8427H18.7441V55.0946H3.64746C3.14471 55.0946 2.73587 55.4404 2.73587 55.8658V58.0715ZM70.3838 52.295V47.3865C70.3838 45.1426 68.2258 43.317 65.5734 43.317H58.8602C56.2079 43.317 54.0499 45.1426 54.0499 47.3865V52.295H56.5699V47.0898C56.5699 46.1289 57.494 45.3472 58.6299 45.3472H65.8036C66.9398 45.3472 67.864 46.1289 67.864 47.0898V52.295H70.3838ZM59.3052 52.295H65.1287V47.6612H59.3052V52.295ZM46.4339 65.4579V56.5222C46.4339 54.2242 48.613 52.35 51.3148 52.2977V47.3866C51.3148 43.8667 54.6998 41.0031 58.8604 41.0031H60.6801V14.6908C58.888 14.4857 57.243 13.8836 55.873 12.993C56.0635 13.1776 56.1789 13.4189 56.1789 13.683C56.1789 14.2635 55.622 14.7338 54.9347 14.7338H54.5746C53.8873 14.7338 53.3304 14.2635 53.3304 13.683C53.3304 13.1026 53.8873 12.6323 54.5746 12.6323H54.9347C55.1508 12.6323 55.3541 12.6788 55.5312 12.7607C53.6404 11.4184 52.3344 9.505 51.9878 7.33736H36.1091C35.4997 11.1494 31.923 14.1752 27.417 14.6908V58.1044C31.923 58.6199 35.4997 61.6458 36.1091 65.4579H46.4339ZM39.7632 28.6771C40.4504 28.6771 41.0073 28.2068 41.0073 27.6264V24.4671C41.0073 23.8867 40.4504 23.4164 39.7632 23.4164C39.0759 23.4164 38.519 23.8867 38.519 24.4671V27.6264C38.519 28.2068 39.0759 28.6771 39.7632 28.6771ZM48.8269 41.3638C48.6742 42.9756 47.9579 44.2051 47.9137 44.2795C47.6057 44.7984 46.8577 45.0076 46.2439 44.7474C45.6309 44.4877 45.3826 43.8584 45.6878 43.3403C45.697 43.3248 46.1863 42.4689 46.3298 41.3638H41.3381C41.2296 41.6079 41.1253 41.8524 41.0251 42.0916C40.2688 43.8989 38.5072 44.9701 36.4016 44.9702C36.1025 44.9702 35.7968 44.9485 35.4857 44.9043C33.5296 44.6267 31.5466 43.3511 31.0094 41.3638H29.8603C29.173 41.3638 28.6161 40.8935 28.6161 40.3131C28.6161 39.7327 29.173 39.2624 29.8603 39.2624H30.8961C30.979 38.2597 31.269 37.4567 32.1656 36.2994C32.5419 35.8137 33.3129 35.6776 33.8881 35.9954C34.463 36.3131 34.6243 36.9643 34.248 37.45C33.6855 38.1762 33.4692 38.6187 33.3926 39.2625H39.6686C40.0929 38.4683 40.4979 37.8819 40.94 37.406C41.8215 36.4567 43.3553 36.0241 44.9438 36.2771C46.6802 36.5534 48.061 37.5727 48.5478 38.9371C48.5864 39.0457 48.6196 39.1541 48.6503 39.2624H49.6658C50.3531 39.2624 50.91 39.7327 50.91 40.3131C50.91 40.8935 50.3531 41.3638 49.6658 41.3638H48.8269ZM35.898 42.8322C36.38 42.9004 38.0056 42.9993 38.6787 41.3914L38.6823 41.3831L38.6903 41.364H33.6193C34.0651 42.2065 35.0068 42.7057 35.898 42.8322ZM44.4832 38.3424C43.8211 38.2366 43.1992 38.3785 42.8981 38.7029C42.7465 38.8661 42.5997 39.0555 42.4572 39.2625H46.0289C45.692 38.7178 45.0371 38.4305 44.4832 38.3424ZM38.519 53.165C38.519 52.5846 39.0759 52.1143 39.7632 52.1143C40.4503 52.1143 41.0073 52.5846 41.0073 53.165V56.3243C41.0073 56.9047 40.4504 57.375 39.7632 57.375C39.0759 57.375 38.519 56.9047 38.519 56.3243V53.165ZM26.1958 67.1082C26.1958 67.6886 25.6389 68.1589 24.9516 68.1589H24.5913C23.904 68.1589 23.3471 67.6886 23.3471 67.1082C23.3471 66.5278 23.904 66.0575 24.5913 66.0575H24.9516C25.6389 66.0575 26.1958 66.5278 26.1958 67.1082ZM55.0287 72.2391H57.5533C58.6165 72.2391 59.4816 71.5085 59.4816 70.6106V68.3038C60.3573 67.5817 60.8651 66.5838 60.8651 65.54C60.8651 64.4432 60.3099 63.3943 59.3421 62.662C58.3751 61.9304 57.0767 61.5802 55.7765 61.7011C53.6377 61.9002 51.9392 63.3591 51.7376 65.1704C51.6053 66.3591 52.1081 67.495 53.1004 68.3058V70.6106C53.1004 71.5086 53.9655 72.2391 55.0287 72.2391ZM54.215 65.3672C54.3053 64.5569 55.0937 63.8789 56.0492 63.7901C56.6539 63.7327 57.2347 63.8891 57.6819 64.2274C58.1235 64.5616 58.3768 65.04 58.3768 65.5401C58.3768 66.1102 58.0605 66.6302 57.5087 66.9671C57.1851 67.1647 56.9935 67.4814 56.9935 67.8186V70.1378H55.5889V67.8186C55.5889 67.4814 55.3973 67.1647 55.0736 66.9671C54.4657 66.596 54.1448 65.998 54.215 65.3672Z" fill="#C0E570"/>
</svg>
