<svg width="75" height="71" viewBox="0 0 75 71" fill="none" xmlns="http://www.w3.org/2000/svg">
<path fill-rule="evenodd" clip-rule="evenodd" d="M72.7634 19.8252L64.078 14.0718H64.3324V5.22032C64.3324 4.52201 63.7628 3.95583 63.0603 3.95583H56.7002C55.9977 3.95583 55.4281 4.52201 55.4281 5.22032V8.3373L43.4138 0.370997C42.9864 0.0874346 42.4292 0.0874346 42.0018 0.370997L12.6522 19.8252C10.8516 21.0184 10.3649 23.4366 11.5653 25.2265C12.7656 27.0164 15.1982 27.5002 16.9987 26.307L21.0832 23.601V48.2131H18.5392C18.5392 47.5147 17.9696 46.9486 17.2671 46.9486H7.09088C6.3884 46.9486 5.81885 47.5147 5.81885 48.2131H0.730713V50.7421H5.81885V63.387H0.730713V65.916H5.81885C5.81885 66.6143 6.3884 67.1805 7.09088 67.1805H17.2671C17.9696 67.1805 18.5392 66.6143 18.5392 65.916V65.4342L28.0362 69.3541C33.2133 71.456 39.0013 71.5199 44.2241 69.5324L63.8744 62.0833C65.0385 61.6436 65.9754 60.756 66.4732 59.6213C66.9873 58.4706 67.0138 57.1627 66.547 55.9922C66.131 54.9457 65.343 54.0876 64.3324 53.5808V23.601L68.4169 26.307C70.2174 27.5002 72.65 27.0164 73.8503 25.2265C75.0507 23.4366 74.564 21.0183 72.7634 19.8252ZM15.9951 64.6515H8.36291V49.4776H15.9951V64.6515ZM57.9722 6.48482H61.7883V12.5544L57.9722 10.0254V6.48482ZM64.1403 58.6021C63.9156 59.1184 63.4909 59.5228 62.9624 59.7237L43.312 67.1716C38.6947 68.9299 33.5773 68.8752 28.9991 67.0186L18.5392 62.6953V50.7421H21.7638C25.9815 50.7469 30.1408 51.723 33.9155 53.5935C35.1619 54.212 36.5357 54.5344 37.9288 54.5355H47.7959C48.8497 54.5423 49.6984 55.397 49.6916 56.4444C49.6859 57.3218 49.0754 58.081 48.2157 58.2797C48.1561 58.2851 48.097 58.293 48.038 58.3008C47.9318 58.3149 47.8258 58.329 47.7171 58.329H32.5315V60.858H47.7171H47.7959C47.8085 60.858 47.8208 60.8561 47.8332 60.8543C47.8459 60.8523 47.8587 60.8504 47.8723 60.8504C48.8818 60.8343 49.8787 60.6242 50.8081 60.2321L61.4436 55.7444C61.9502 55.5294 62.5232 55.5294 63.0298 55.7444C63.5567 55.9655 63.9702 56.3905 64.1746 56.9216C64.3907 57.4636 64.3783 58.0693 64.1403 58.6021ZM47.7959 52.0065H37.9288C36.9305 52.0051 35.9462 51.7739 35.0527 51.3313C31.4874 49.5658 27.6026 48.527 23.6273 48.2763V21.9116L42.7078 9.2667L61.7883 21.9116V53.094C61.3281 53.1326 60.8764 53.2404 60.4488 53.4139L52.201 56.8951C52.225 56.7417 52.2407 56.5873 52.2481 56.4323C52.2481 53.988 50.2548 52.0065 47.7959 52.0065ZM70.5897 24.4344C70.3184 24.4344 70.0533 24.3548 69.8276 24.2054L43.4138 6.69725C42.9864 6.41369 42.4292 6.41369 42.0018 6.69725L15.5881 24.2029C14.9559 24.6213 14.1023 24.4509 13.6814 23.8224C13.5312 23.598 13.451 23.3345 13.451 23.0648C13.4502 22.6076 13.68 22.1802 14.0629 21.9268L42.7078 2.94424L71.3527 21.9293C71.7356 22.1829 71.9654 22.6101 71.9646 23.0674C71.9647 23.8223 71.3491 24.4343 70.5897 24.4344ZM35.0756 21.6587C32.2655 21.6587 29.9874 23.9232 29.9874 26.7166C29.9874 29.5101 32.2655 31.7746 35.0756 31.7746C37.8856 31.7746 40.1637 29.5101 40.1637 26.7166C40.1637 23.9232 37.8856 21.6587 35.0756 21.6587ZM35.0756 29.2456C33.6704 29.2456 32.5315 28.1134 32.5315 26.7166C32.5315 25.3198 33.6704 24.1876 35.0756 24.1876C36.4807 24.1876 37.6196 25.3198 37.6196 26.7166C37.6196 28.1134 36.4807 29.2456 35.0756 29.2456ZM50.34 36.8326C47.5299 36.8326 45.2519 39.0972 45.2519 41.8906C45.2519 44.684 47.5299 46.9485 50.34 46.9485C53.1501 46.9485 55.4281 44.684 55.4281 41.8906C55.4281 39.0972 53.1501 36.8326 50.34 36.8326ZM50.34 44.4196C48.9349 44.4196 47.7959 43.2874 47.7959 41.8906C47.7959 40.4938 48.9349 39.3616 50.34 39.3616C51.7451 39.3616 52.884 40.4938 52.884 41.8906C52.884 43.2874 51.7451 44.4196 50.34 44.4196ZM31.6317 43.5251L51.9838 23.2937L53.7827 25.0819L33.4306 45.3134L31.6317 43.5251ZM10.907 59.5935H13.451V62.1225H10.907V59.5935Z" fill="#C0E570"/>
</svg>
