<svg width="71" height="72" viewBox="0 0 71 72" fill="none" xmlns="http://www.w3.org/2000/svg">
<path fill-rule="evenodd" clip-rule="evenodd" d="M67.8119 17.9965H52.9943V4.1484C52.9943 1.86093 50.8535 0 48.2221 0H4.77238C2.141 0 0.000161594 1.86093 0.000161594 4.1484V51.8595C0.000161594 52.4417 0.54293 52.9135 1.21278 52.9135C1.88263 52.9135 2.4254 52.4417 2.4254 51.8595V4.1484C2.4254 3.02336 3.47811 2.10814 4.77238 2.10814H48.222C49.5162 2.10814 50.5691 3.02336 50.5691 4.1484V17.9965H47.3355V14.62C47.3355 14.0378 46.7927 13.5659 46.1228 13.5659C45.453 13.5659 44.9102 14.0378 44.9102 14.62V17.9965H26.2244V16.8838C26.2244 16.3017 25.6816 15.8298 25.0118 15.8298C24.3419 15.8298 23.7992 16.3017 23.7992 16.8838V51.2575C23.7992 51.8398 24.3419 52.3116 25.0118 52.3116C25.6816 52.3116 26.2244 51.8398 26.2244 51.2575V50.1447H44.9102V61.1141H8.08429V7.02714H44.9104V10.4057C44.9104 10.9878 45.4532 11.4597 46.123 11.4597C46.7929 11.4597 47.3356 10.9878 47.3356 10.4057V6.26484C47.3356 5.52277 46.6412 4.919 45.7875 4.919H7.20716C6.35348 4.919 5.65905 5.52263 5.65905 6.26484V61.8764C5.65905 62.6183 6.35348 63.2221 7.20716 63.2221H45.7873C46.641 63.2221 47.3355 62.6183 47.3355 61.8764V50.1446H50.5691V67.8094C50.5691 68.9345 49.5162 69.8498 48.222 69.8498H4.77238C3.47811 69.8498 2.42524 68.9345 2.42524 67.8094V56.0738C2.42524 55.4915 1.88247 55.0197 1.21262 55.0197C0.542768 55.0197 0 55.4915 0 56.0738V67.8094C0 70.0969 2.14084 71.958 4.77238 71.958H48.222C50.8533 71.958 52.9943 70.097 52.9943 67.8094V50.1446H58.7156C59.3855 50.1446 59.9283 49.6728 59.9283 49.0905C59.9283 48.5082 59.3855 48.0364 58.7156 48.0364H26.2244V45.2256H58.1481C58.818 45.2256 59.3608 44.7538 59.3608 44.1715C59.3608 42.2071 61.1992 40.609 63.4591 40.609C64.1289 40.609 64.6717 40.1372 64.6717 39.555V28.586C64.6717 28.0039 64.1289 27.5319 63.4591 27.5319C61.1992 27.5319 59.3608 25.9338 59.3608 23.9696C59.3608 23.3875 58.818 22.9155 58.1481 22.9155H26.2244V20.1047H67.8119C67.8633 20.1047 67.9053 20.1411 67.9053 20.1859V47.9552C67.9053 47.9999 67.8633 48.0364 67.8119 48.0364H63.5642C62.8943 48.0364 62.3516 48.5082 62.3516 49.0905C62.3516 49.6728 62.8943 50.1446 63.5642 50.1446H67.8119C69.2008 50.1446 70.3306 49.1625 70.3306 47.9552V20.1859C70.3306 18.9788 69.2008 17.9965 67.8119 17.9965ZM57.0485 25.0237C57.5443 27.3068 59.6198 29.1109 62.2463 29.5418V38.5991C59.6198 39.03 57.5443 40.8342 57.0485 43.1173H26.2244V25.0237H57.0485ZM62.2464 23.9055C62.2464 23.3234 62.7892 22.8514 63.4591 22.8514C64.1288 22.8514 64.6717 23.3234 64.6717 23.9055V24.1619C64.6717 24.744 64.1289 25.2159 63.4591 25.2159C62.7892 25.2159 62.2464 24.744 62.2464 24.1619V23.9055ZM29.1953 66.522C29.1953 67.1042 28.6525 67.576 27.9827 67.576H25.0118C24.3419 67.576 23.7991 67.1042 23.7991 66.522C23.7991 65.9397 24.3419 65.4679 25.0118 65.4679H27.9827C28.6525 65.4679 29.1953 65.9397 29.1953 66.522ZM63.4591 45.2898C64.1289 45.2898 64.6717 44.818 64.6717 44.2357V43.9794C64.6717 43.3971 64.1289 42.9253 63.4591 42.9253C62.7892 42.9253 62.2464 43.3971 62.2464 43.9794V44.2357C62.2464 44.8178 62.7892 45.2898 63.4591 45.2898ZM49.4818 35.0762H46.1227C45.453 35.0762 44.9101 34.6042 44.9101 34.0221C44.9101 33.44 45.4529 32.968 46.1227 32.968H49.4818C50.1517 32.968 50.6945 33.44 50.6945 34.0221C50.6945 34.6042 50.1517 35.0762 49.4818 35.0762ZM16.6072 11.8039H12.4234C11.7535 11.8039 11.2108 11.332 11.2108 10.7499C11.2108 10.1677 11.7535 9.6958 12.4234 9.6958H16.6072C17.2771 9.6958 17.8199 10.1677 17.8199 10.7499C17.8199 11.332 17.2771 11.8039 16.6072 11.8039ZM12.4234 16.2331H20.4876C21.1575 16.2331 21.7002 15.7612 21.7002 15.1791C21.7002 14.5969 21.1575 14.125 20.4876 14.125H12.4234C11.7535 14.125 11.2108 14.5969 11.2108 15.1791C11.2108 15.7612 11.7535 16.2331 12.4234 16.2331ZM37.6707 33.0756C37.8298 33.1268 37.9886 33.1765 38.1446 33.2244C39.8078 33.7355 40.7328 35.0739 40.4463 36.555C40.2251 37.6991 39.2274 38.859 37.6707 39.2121V39.7739C37.6707 40.2395 37.2363 40.6171 36.7006 40.6171C36.165 40.6171 35.7305 40.2395 35.7305 39.7739V39.292C34.9514 39.2275 34.3271 39.0384 33.4718 38.552C33.0236 38.2971 32.898 37.7744 33.1913 37.3847C33.4846 36.9949 34.086 36.8859 34.5342 37.1408C35.0196 37.417 35.3299 37.5411 35.7305 37.5952V34.2063C35.1389 33.9696 34.6948 33.7412 34.3297 33.4923C33.5423 32.9555 33.1824 32.0248 33.3908 31.0635C33.6176 30.0168 34.4561 29.184 35.5789 28.89C35.6283 28.8771 35.6776 28.8657 35.7269 28.8543L35.7305 28.8534V28.3674C35.7305 27.9018 36.165 27.5242 36.7006 27.5242C37.2363 27.5242 37.6707 27.9018 37.6707 28.3674V28.7352C38.899 28.844 39.8198 29.2381 39.8775 29.2632C40.3564 29.4721 40.5498 29.9788 40.3097 30.395C40.0701 30.8105 39.489 30.9789 39.0109 30.7721C38.9912 30.7638 38.4233 30.5286 37.6707 30.4328V33.0756ZM35.2975 31.3757C35.2249 31.7108 35.3152 32.0207 35.5273 32.1653C35.5899 32.208 35.6586 32.2501 35.7307 32.2915V30.7038C35.4862 30.8888 35.347 31.1478 35.2975 31.3757ZM37.6709 37.3982C38.1593 37.1362 38.4518 36.6954 38.5331 36.2754C38.5923 35.9688 38.6162 35.2452 37.6709 34.8757V37.3982Z" fill="#C0E570"/>
</svg>
