<svg width="52" height="72" viewBox="0 0 52 72" fill="none" xmlns="http://www.w3.org/2000/svg">
<path d="M51.9202 67.1783L51.2848 64.0229C51.1698 63.4518 50.6083 63.0803 50.0306 63.1945C49.4529 63.3083 49.0779 63.8636 49.1928 64.4348L49.8282 67.5903C50.068 68.7818 49.1458 69.8905 47.919 69.8905H41.7111V65.1008C41.7111 64.5182 41.2337 64.0461 40.6446 64.0461C40.0556 64.0461 39.5781 64.5182 39.5781 65.1008V69.8905H30.4175L29.036 59.3107L29.7498 57.2359C30.1948 57.4792 31.0468 58.5664 32.4683 58.1399C33.1256 57.9423 33.6573 57.4485 33.8923 56.7973C35.1521 53.306 35.2706 52.9779 35.9315 51.1463C38.1847 51.8036 43.5528 53.3694 43.63 53.3919L43.6326 53.3838C43.7813 53.4378 43.9457 53.4846 44.4231 53.6231C45.4863 54.0228 47.3031 55.0555 47.8025 57.529L48.2206 59.6056C48.3356 60.177 48.8971 60.5479 49.4747 60.4342C50.0525 60.3204 50.4275 59.7652 50.3126 59.194L49.8943 57.1165C49.1872 53.6136 46.6087 52.1782 45.1348 51.6344C45.0681 51.6099 45.6865 51.7935 35.7265 48.8873L32.7947 46.9267V45.0842C36.4676 43.193 39.2088 39.8092 40.2254 35.7546C40.6247 35.9495 41.072 36.0619 41.5466 36.0619C42.9916 36.0619 44.2009 35.0461 44.4836 33.699C46.3971 32.6703 47.6013 30.696 47.6013 28.5045C47.6013 27.2319 47.1949 26.0326 46.4795 25.049V20.2255C46.4795 14.8092 44.3349 9.71761 40.4407 5.88881C36.5756 2.08856 31.4614 0 26.0279 0C21.5134 0 17.1927 1.44605 13.5617 4.24645C13.0972 4.60477 13.0143 5.26753 13.3767 5.72667C13.739 6.18609 14.4091 6.26794 14.8736 5.90977C18.084 3.43364 21.9394 2.10938 26.0276 2.10938C30.8931 2.10938 35.4745 3.98053 38.9366 7.38478C42.4251 10.8148 44.3463 15.375 44.3463 20.2255V22.8579C44.0417 22.0708 43.4089 21.4453 42.613 21.1444V20.2255C42.613 11.1815 35.1726 3.82331 26.0268 3.82331C16.881 3.82331 9.44048 11.1815 9.44048 20.2255V21.1445C8.64442 21.4455 8.01176 22.071 7.70716 22.8579V20.4363C7.70716 16.3406 9.03875 12.4601 11.5582 9.21417C11.9168 8.75222 11.8288 8.09002 11.3616 7.73536C10.8942 7.38056 10.2249 7.46775 9.86623 7.92984C7.05829 11.5473 5.57425 15.8719 5.57425 20.4363V25.0491C4.85897 26.0326 4.45255 27.2319 4.45255 28.5045C4.45255 30.6958 5.65673 32.6701 7.57022 33.699C7.78637 34.729 8.54531 35.5625 9.53589 35.8993C9.81916 37.2064 10.4801 38.424 11.4682 39.4487C12.4088 40.4245 13.6133 41.164 14.9655 41.6226C15.2936 42.0036 15.642 42.3689 16.0103 42.7165C16.9888 43.64 18.0677 44.412 19.2198 45.0243V46.9434L16.3322 48.8745C7.84254 51.3503 6.9778 51.6039 6.9505 51.6118L6.95135 51.6146C6.9276 51.623 6.90442 51.632 6.8821 51.6412L6.87954 51.6344C5.40546 52.1782 2.82703 53.6134 2.11957 57.1178L0.0778098 67.2864C-0.412649 69.7285 1.47794 72 3.99125 72H14.2851C14.8741 72 15.3516 71.5279 15.3516 70.9453C15.3516 70.3627 14.8741 69.8906 14.2851 69.8906H12.4758V65.1009C12.4758 64.5183 11.9983 64.0462 11.4093 64.0462C10.8203 64.0462 10.3428 64.5183 10.3428 65.1009V69.8906H3.99139C2.81992 69.8906 1.94238 68.832 2.17019 67.6973L4.21166 57.5297C4.71108 55.0555 6.5283 54.0228 7.59155 53.6234C8.95542 53.2256 13.8232 51.8055 16.1054 51.1398C16.5883 52.4782 17.6738 55.4861 18.147 56.7975C18.3761 57.4321 18.8838 57.9336 19.5712 58.14C20.8213 58.5159 21.4939 57.7845 22.2964 57.231L23.0151 59.3302L21.6363 69.8906H19.262C18.673 69.8906 18.1955 70.3627 18.1955 70.9453C18.1955 71.5279 18.673 72 19.262 72C20.6307 72 46.4136 72 47.919 72C50.4947 72 52.422 69.6714 51.9202 67.1783ZM44.5461 26.0307C44.5677 26.0605 44.5909 26.089 44.6153 26.1163C45.1551 26.778 45.468 27.6124 45.468 28.5045C45.468 29.4356 45.1301 30.306 44.5461 30.9802V26.0307ZM7.43825 26.1162C7.46271 26.0889 7.48575 26.0605 7.50722 26.0308V30.9802C6.92334 30.3058 6.58546 29.4358 6.58546 28.5047C6.58546 27.6126 6.89845 26.7781 7.43825 26.1162ZM11.3739 33.0957C11.3739 33.5682 10.9851 33.9528 10.5073 33.9528C10.0293 33.9528 9.64056 33.5683 9.64056 33.0957V33.005V24.0045V23.9138C9.64056 23.4413 10.0293 23.0567 10.5073 23.0567C10.9851 23.0567 11.3739 23.4412 11.3739 23.9138V33.0957ZM33.9836 50.2685C33.7938 50.7945 32.1125 55.4535 31.8833 56.0887C31.8713 56.1227 31.8304 56.1353 31.8 56.1137L29.8516 54.6846L32.293 49.1379L33.9836 50.2685ZM40.6798 23.9137C40.6798 23.4412 41.0685 23.0566 41.5464 23.0566C42.0242 23.0566 42.4132 23.4411 42.4132 23.9137V24.0044V33.0048V33.0955C42.4132 33.568 42.0244 33.9526 41.5464 33.9526C41.0686 33.9526 40.6798 33.5682 40.6798 33.0955V23.9137ZM11.713 35.8099C11.7675 35.7861 11.8207 35.7602 11.8734 35.7334C11.9939 36.1931 12.1371 36.6465 12.3013 37.092C12.0434 36.686 11.8457 36.2559 11.713 35.8099ZM13.3673 21.6959C13.1297 21.7185 12.8932 21.7756 12.6706 21.8641C12.3659 21.5497 11.9923 21.3026 11.5737 21.1444V20.2255C11.5737 12.3445 18.0573 5.93269 26.0269 5.93269C33.9963 5.93269 40.48 12.3443 40.48 20.2255V21.1445C40.2136 21.2453 39.9658 21.3823 39.7419 21.5499C39.7335 21.5421 39.7254 21.5347 39.7205 21.5304C39.7023 21.5144 39.6837 21.4989 39.6644 21.4841L35.0634 17.9415C34.0118 17.1321 32.7263 16.9289 31.5383 17.3853C28.3898 18.5889 20.3274 21.4175 13.4761 21.6863C13.4394 21.6876 13.4031 21.6908 13.3673 21.6959ZM18.6407 42.1609H21.7658C22.1971 43.2768 23.288 44.0727 24.5661 44.0727H27.2753C28.9294 44.0727 30.2751 42.742 30.2751 41.1062C30.2751 39.4705 28.9294 38.1398 27.2753 38.1398H24.5661C23.288 38.1398 22.1971 38.9357 21.7658 40.0515H18.2834C17.5651 40.0515 16.8678 39.9608 16.2091 39.7914C14.4905 37.5923 13.5305 34.8594 13.5305 32.0562V23.8061C13.552 23.8011 13.5735 23.7971 13.5925 23.7947C13.6167 23.7939 13.6406 23.7922 13.6643 23.79C20.8112 23.4847 29.0753 20.5885 32.309 19.3522C32.7883 19.1682 33.3015 19.2583 33.7531 19.6062L38.3056 23.1116C38.3454 23.1604 38.5232 23.4018 38.5232 23.797V32.247C38.5232 39.1385 32.87 44.6574 25.9241 44.6036C23.2252 44.5808 20.7007 43.6908 18.6407 42.1609ZM23.6995 41.1062C23.6995 40.6337 24.0883 40.2491 24.5662 40.2491H27.2755C27.7533 40.2491 28.1422 40.6336 28.1422 41.1062C28.1422 41.5787 27.7534 41.9633 27.2755 41.9633H24.5662C24.0883 41.9632 23.6995 41.5787 23.6995 41.1062ZM20.2394 56.1135C20.21 56.1358 20.1686 56.1226 20.1561 56.0886C19.6468 54.6775 18.529 51.5796 18.0559 50.2684L19.7515 49.1344C23.8716 58.3498 19.6343 48.8537 22.1977 54.6771L20.2394 56.1135ZM21.353 47.2157C21.3527 47.2151 21.3527 47.2153 21.353 47.2157V47.2157ZM21.3769 47.2721C21.3755 47.2687 21.3689 47.2532 21.3528 47.2154V45.9464C22.8423 46.4517 24.4163 46.7137 26.0281 46.7137C27.5597 46.7137 29.1363 46.4766 30.6612 45.9761V47.2745L27.8252 53.9772H24.2238C22.0151 48.7752 21.4841 47.5245 21.3769 47.2721ZM27.8919 56.0869L27.1828 58.1483H24.8627L24.157 56.0869H27.8919ZM23.7871 69.8906L25.0447 60.2577H27.0086L28.2666 69.8906H23.7871Z" fill="#C0E570"/>
</svg>
