<svg width="44" height="35" viewBox="0 0 44 35" fill="none" xmlns="http://www.w3.org/2000/svg">
<g clip-path="url(#clip0)">
<path d="M41.5 34.5H2C0.9 34.5 0 33.6 0 32.5V13.18C0 12.08 0.9 11.18 2 11.18H41.5C42.6 11.18 43.5 12.08 43.5 13.18V32.5C43.5 33.6 42.6 34.5 41.5 34.5Z" fill="#8CC63F"/>
<path d="M24.9199 28.15H38.5599" stroke="#D6E291" stroke-width="3" stroke-miterlimit="10"/>
<path d="M12.1701 26.2H8.37012C8.09012 26.2 7.87012 25.97 7.87012 25.7V21.89C7.93012 21.42 8.14012 20.98 8.47012 20.65L28.6901 0.430002C29.2601 -0.139998 30.1801 -0.139998 30.7501 0.430002L33.6301 3.31C34.2001 3.88 34.2001 4.8 33.6301 5.37L13.4201 25.59C13.0901 25.93 12.6501 26.14 12.1701 26.2Z" fill="#D6E291"/>
</g>
<defs>
<clipPath id="clip0">
<rect width="43.5" height="34.5" fill="white"/>
</clipPath>
</defs>
</svg>
