<svg xmlns="http://www.w3.org/2000/svg" width="375" height="320" viewBox="0 0 375 320">
    <path fill-rule="evenodd" d="M196.887 306.526v13.212l-11.441-6.605 11.441-6.607zm9.439.083l11.302 6.524-11.302 6.524v-13.048zm-50.734.562l10.324 5.962-10.324 5.96v-11.922zm91.83.266v11.39l-9.867-5.694 9.868-5.696zm-102.337.376v10.637l-9.214-5.317 9.214-5.32zm113.348.607l8.162 4.713-8.162 4.712v-9.425zm-152.712.813l6.755 3.9-6.755 3.897v-7.797zm-12.803.495v6.808l-5.896-3.403 5.896-3.405zm-88.72.538l4.966 2.867L4.198 316v-5.734zm51.104.076l4.832 2.79-4.832 2.79v-5.58zm-13.845.078v5.424l-4.696-2.711 4.696-2.713zm255.267.063v5.296l-4.59-2.646 4.59-2.65zm14.488.912l3.007 1.738-3.007 1.737v-3.475zM180.018 290.52l13.635 7.873-13.635 7.868v-15.741zm43.07.104v15.534l-13.454-7.765 13.454-7.769zm-51.187.222v15.092l-13.072-7.545 13.072-7.547zm59.536.291L244 298.394l-12.563 7.25v-14.506zm-101.543 1.004l10.826 6.252-10.826 6.247v-12.5zm-10.26.796v10.911l-9.452-5.455 9.451-5.456zm153.04.24v10.43l-9.034-5.214 9.033-5.217zm-192.755.84l7.575 4.376-7.575 4.37v-8.746zm204.409.294l7.066 4.082-7.066 4.076v-8.158zm-216.558.014v8.132l-7.042-4.064 7.042-4.068zm-51.059 0v8.132l-7.042-4.064 7.042-4.068zm12.415.159l6.77 3.909-6.77 3.906v-7.815zm292.726 1.95v3.913l-3.387-1.954 3.387-1.96zm15.32.969l1.713.99-1.712.985v-1.975zm-138.817-22.899v18.294l-15.844-9.147 15.844-9.147zm6.477.035l15.786 9.112-15.786 9.112V274.54zm-50.696.632l14.692 8.48-14.692 8.483v-16.963zm94.618.48v16.001l-13.86-8 13.86-8.002zm-102.257.232v15.535l-13.451-7.767 13.451-7.768zm110.661.848l11.986 6.92-11.986 6.92v-13.84zm-152.814.636l10.883 6.284-10.883 6.284v-12.568zm-10.082.555v11.46l-9.924-5.73 9.924-5.73zm-91.629.152l9.661 5.577-9.66 5.578v-11.155zm40.264.375v10.404l-9.01-5.202 9.01-5.202zm11.013 0l9.01 5.202-9.01 5.202V278.45zm243.867.727v8.95l-7.75-4.475 7.75-4.475zm12.549 1.204l5.663 3.271-5.663 3.271v-6.542zm36.577 2.145v2.252l-1.952-1.126 1.952-1.126zm16.175.788l.584.338-.584.337v-.675zm-184.327-24.469l17.437 10.068-17.437 10.067v-20.135zm45.605.108v19.919l-17.252-9.959 17.252-9.96zm-51.177.198v19.525l-16.91-9.763 16.91-9.762zm57.013.353l16.294 9.409-16.294 9.408v-18.817zm-101.619.867l14.792 8.542-14.792 8.54v-17.082zm-7.577.727v15.63l-13.538-7.815 13.538-7.815zm152.85.57v14.49l-12.547-7.245 12.547-7.245zm-255.486.32v13.85l-11.992-6.925 11.992-6.925zm60.142.1l11.824 6.825-11.824 6.824v-13.649zm-50.971.152l11.557 6.673-11.557 6.673V262.24zm41.68.113v13.119l-11.36-6.559 11.36-6.56zm214.004.552l10.405 6.008-10.405 6.008v-12.016zm39.48 2.59v6.835l-5.917-3.417 5.918-3.418zm13.76 1.186l3.865 2.232-3.865 2.23v-4.462zm35.587 1.782v.897l-.778-.447.778-.45zM199.386 243.24v21.865l-18.938-10.932 18.938-10.933zm4.451.095l18.77 10.838-18.77 10.834v-21.672zm-50.726.58l17.767 10.258-17.767 10.257v-20.516zm96.692.436v19.64l-17.008-9.818 17.008-9.822zm-102.168.082v19.478l-16.866-9.738 16.866-9.74zm108.48 1.012l15.115 8.728-15.115 8.727v-17.455zm-153.065.198l14.768 8.53-14.768 8.526v-17.056zM.95 245.678l14.713 8.496L.95 262.667v-16.99zm94.69.378v16.235l-14.06-8.117 14.06-8.118zm-51.189.225v15.783l-13.67-7.89 13.67-7.893zm7.988.138l13.427 7.755-13.427 7.751V246.42zm246.35 1.529v12.449l-10.782-6.223 10.781-6.226zm10.59 1.315l8.505 4.91-8.505 4.91v-9.82zm38.238 2.547v4.724l-4.09-2.36 4.09-2.364zm14.866.99l2.378 1.374-2.378 1.372V252.8zm-184.423-24.632l19.513 11.263-19.513 11.268v-22.53zm47 .083v22.363l-19.368-11.183 19.368-11.18zm-51.183.214V250.4l-18.999-10.969 19-10.966zm55.572.274l18.523 10.692-18.523 10.697V228.74zm-101.772.601l17.483 10.091-17.483 10.096V229.34zm-5.66.508v19.17l-16.6-9.587 16.6-9.583zm-102.241.21v18.748l-16.237-9.375 16.237-9.373zm6.373.307l15.71 9.066-15.71 9.072v-18.138zm51.163.181l15.395 8.885-15.395 8.89v-17.775zm-6.818.105v17.562l-15.21-8.782 15.21-8.78zm204.237.008v17.55l-15.2-8.778 15.2-8.772zm7.589 1.215l13.093 7.557-13.093 7.562v-15.119zm41.21 2.698v9.723l-8.42-4.864 8.42-4.86zm12.157 1.296l6.174 3.563-6.174 3.568v-7.13zm36.988 2.02v3.092L370 239.43l2.674-1.542zm15.6.627l1.59.916-1.59.92v-1.836zm-188.566-25.311v22.98l-19.904-11.492 19.904-11.488zm3.752 0l19.901 11.488-19.9 11.492v-22.98zm-50.759.518l18.998 10.97-18.998 10.97v-21.94zm97.56.36v21.22l-18.38-10.61 18.38-10.61zm-102.182.104v21.015l-18.198-10.509 18.198-10.506zM0 214.553l17.56 10.14L0 234.831v-20.279zm255.503.354l16.95 9.785-16.95 9.787v-19.572zm-153.116.109l16.76 9.676-16.76 9.677v-19.353zm-56.991.147v19.059l-16.505-9.53 16.505-9.53zm50.988.125v18.81l-16.29-9.406 16.29-9.404zm-44.843.1l16.12 9.304-16.12 9.31v-18.614zm247.955 1.85v14.908l-12.91-7.454 12.91-7.453zm9.15 1.271l10.705 6.183-10.706 6.183V218.51zm39.71 2.542v7.283l-6.308-3.642 6.308-3.64zm13.413 1.038l4.512 2.603-4.512 2.608v-5.21zm36.258 1.367v2.473l-2.14-1.237 2.14-1.236zm15.878.497l1.283.74-1.283.74v-1.48zm-188.718-25.406v22.812l-19.754-11.406 19.754-11.406zm-47.19.03l19.7 11.376-19.7 11.376v-22.752zm51.234.304l19.181 11.072-19.181 11.075V198.88zm-55.32.042v22.06l-19.102-11.03 19.102-11.03zm-46.365.714l17.872 10.316-17.872 10.319v-20.635zm-107.34.2v20.233L2.682 209.953l17.522-10.116zm102.007.19v19.853l-17.19-9.927 17.19-9.925zm-96.494.116l16.992 9.81-16.992 9.81v-19.62zm249.437.295v19.031l-16.477-9.516 16.477-9.515zm-198.163.076l16.35 9.44-16.35 9.44v-18.88zm-6.148.048v18.781l-16.265-9.39 16.265-9.391zm210.928.888l14.73 8.503-14.73 8.505V201.45zm42.427 2.484v12.04l-10.429-6.02 10.429-6.02zm10.787 1.245l8.267 4.774-8.267 4.773v-9.547zm38.395 2v5.55l-4.8-2.776 4.8-2.774zm14.22.694l3.604 2.08-3.604 2.08v-4.16zm35.893.949v2.264l-1.957-1.133 1.957-1.131zm15.874.275l1.483.856-1.483.859v-1.715zm34.738.504v.707l-.613-.355.613-.352zm-270.613-25.82l19.801 11.432-19.801 11.432v-22.864zm-3.869.083v22.699l-19.656-11.35 19.656-11.349zm50.834.394v21.911l-18.979-10.956 18.98-10.955zm-97.608.25l18.546 10.705-18.546 10.706v-21.41zm102.353.402l17.848 10.303-17.848 10.307v-20.61zm-107.242 0v20.607l-17.846-10.304 17.846-10.303zm-147.934.213l17.477 10.09L.028 205.305v-20.182zm102.384.462l16.682 9.628-16.682 9.63v-19.258zm-57.012.088v19.08l-16.522-9.54 16.522-9.54zm50.99.124v18.834l-16.31-9.418 16.31-9.416zm-44.856.1l16.138 9.316-16.138 9.318v-18.635zm248.488.952v16.728l-14.487-8.364 14.487-8.364zm7.988 1.083l12.609 7.28-12.609 7.283v-14.563zm41.085 2.361v9.84l-8.523-4.92 8.523-4.92zm11.9.975l6.834 3.945-6.835 3.948v-7.893zm37.78 1.414v5.065l-4.385-2.534 4.385-2.53zm14.362.46l3.587 2.07-3.587 2.072v-4.141zm36.008.735v2.673l-2.316-1.337 2.316-1.336zm15.66.318l1.764 1.018-1.764 1.019v-2.037zm34.808.707v.623l-.542-.312.542-.311zm-274.615-25.505v22.153l-19.183-11.076 19.183-11.077zm4.299.121l18.98 10.956-18.98 10.956v-21.912zm-50.96.175l18.675 10.78-18.674 10.782v-21.562zm-4.774.355V190.9l-18.06-10.427 18.06-10.426zm101.825.51v19.832l-17.174-9.916 17.174-9.917zm-147.444.285l16.68 9.63-16.68 9.632v-19.262zm-6.09.329v18.603l-16.113-9.301 16.113-9.302zm-102.15.049v18.506L3.68 180.474l16.026-9.253zm261.71.128l15.808 9.125-15.807 9.125v-18.25zm-255.26.07l15.687 9.055-15.687 9.056v-18.112zm51.192.226l15.29 8.829-15.29 8.827v-17.656zm-6.869.074v17.51l-15.162-8.755 15.162-8.755zm254.381 1.59v14.33l-12.408-7.165 12.408-7.164zm9.356 1.051l10.588 6.114-10.588 6.114V174.36zm40.096 1.735v8.759l-7.58-4.38 7.58-4.38zm12.334.642l6.474 3.737-6.474 3.736v-7.473zm37.772 1.013v5.448l-4.718-2.724 4.718-2.724zm14.11.407l4.01 2.317-4.01 2.315v-4.632zm36.25.808v3.018l-2.617-1.51 2.617-1.508zm15.547.468l1.8 1.04-1.8 1.04v-2.08zM204.075 155.31l18.055 10.425-18.055 10.424v-20.85zm46.043.061v20.727l-17.953-10.363 17.953-10.364zm-51.15.15v20.427l-17.687-10.213 17.688-10.213zm56.399.19l17.359 10.024-17.36 10.022V155.71zm-101.807.542l16.42 9.482-16.42 9.481v-18.963zm-6.333.45v18.064l-15.643-9.032 15.643-9.033zm153.026.268v17.527l-15.18-8.763 15.18-8.764zM1 157.326l14.564 8.409-14.564 8.41v-16.82zm102.155.062l14.457 8.347-14.457 8.344v-16.691zm-7.509.222v16.25l-14.073-8.125 14.073-8.125zm-51.111.087v16.073l-13.92-8.035 13.92-8.038zm263.106.117l13.719 7.92-13.72 7.922v-15.842zm-255.3 0l13.721 7.92-13.721 7.922v-15.842zm297.53 1.655V172l-10.849-6.265 10.849-6.266zm10.197.71l9.62 5.556-9.62 5.554v-11.11zm39.803 1.126v8.859l-7.67-4.43 7.67-4.429zm12.194.498l6.811 3.932-6.811 3.93v-7.862zm38.064.893v6.079l-5.265-3.04 5.265-3.04zm13.815.523l4.354 2.516-4.354 2.516v-5.032zm36.262 1.176v2.677l-2.315-1.337 2.315-1.34zm15.782.534l1.398.806-1.398.803v-1.61zm-286.028-23.746l16.993 9.813-16.993 9.81v-19.623zm-5.746.095v19.432l-16.828-9.714 16.828-9.718zm50.862.344v18.747l-16.234-9.373 16.234-9.374zm-95.81.196l15.894 9.178-15.894 9.175v-18.353zm102.292.297l15.38 8.88-15.38 8.877v-17.757zm-108.96.13v17.5l-15.16-8.75 15.16-8.75zm-43.615.917l13.568 7.834-13.568 7.832v-15.666zm196.14.215v15.236l-13.196-7.617 13.197-7.62zm-204.318.134v14.968l-12.961-7.483 12.96-7.485zm-42.393.501l12.092 6.984-12.092 6.978v-13.962zm255.31.016l12.066 6.968-12.067 6.965v-13.933zm-315.336.002v13.927l-12.062-6.961 12.062-6.966zm9.044.116l11.863 6.85-11.863 6.848v-13.698zm41.931.031v13.637l-11.81-6.818 11.81-6.819zm305.81.951v11.73l-10.159-5.862 10.158-5.868zm10.516.467l9.35 5.4-9.35 5.399v-10.799zm39.769.878v9.045l-7.834-4.522 7.834-4.523zm12.043.426l7.094 4.097-7.094 4.094V146.9zm38.102 1.157v5.877l-5.093-2.937 5.093-2.94zm14.042.721l3.842 2.219-3.842 2.217v-4.436zm35.912 1.19v2.055l-1.776-1.026 1.776-1.03zm16.137.522l.873.507-.873.503v-1.01zM249.39 127.151v18.21l-15.768-9.105 15.768-9.105zm6.585.129l15.541 8.976-15.54 8.971V127.28zm-50.913.26l15.098 8.716-15.098 8.715V127.54zm-7.142.324v16.78l-14.534-8.388 14.534-8.392zm102.07.086v16.61l-14.385-8.304 14.385-8.306zm7.699.467l13.575 7.84-13.575 7.836v-15.676zm-152.938.42l12.848 7.42-12.848 7.414v-14.835zm195.514.47v13.895l-12.034-6.946 12.034-6.948zm-204.245.007v13.881l-12.018-6.939 12.018-6.942zm213.467.383l11.359 6.56-11.359 6.553v-13.113zm-255.021.48l10.527 6.08-10.527 6.079v-12.159zm296.205.263v11.63l-10.07-5.814 10.07-5.816zm-306.376.026v11.58l-10.026-5.79 10.026-5.79zm316.899.351l9.418 5.44-9.418 5.434v-10.874zm-408.475.007l9.407 5.432-9.407 5.43v-10.862zm51.086.044l9.328 5.388-9.328 5.385v-10.773zm-10.83.048v10.675l-9.246-5.335 9.246-5.34zm408.006.823v9.031l-7.82-4.514 7.82-4.517zm12.165.623l6.742 3.894-6.742 3.891v-7.785zm37.657 1.52v4.743l-4.107-2.369 4.107-2.374zm14.642.627l3.024 1.747-3.024 1.747v-3.494zm35.411 1.12v1.254l-1.086-.627 1.086-.627zm-276.408-22.397v16.566l-14.348-8.283 14.348-8.283zm-43.552.094l14.185 8.19-14.185 8.19v-16.38zm51.135.127l13.961 8.062-13.96 8.06v-16.122zm-58.846.13v15.863l-13.738-7.93 13.738-7.933zm101.872.428v15.007l-12.997-7.503 12.997-7.504zm8.521.289l12.498 7.215-12.498 7.213V114.3zm-153.136.073l12.367 7.142-12.367 7.14v-14.282zm195.198.465v13.355l-11.567-6.678 11.567-6.677zm-204.307.12v13.116l-11.362-6.559 11.362-6.557zm213.803.203l11.005 6.354-11.005 6.353v-12.707zm41.04.581v11.547l-9.996-5.774 9.996-5.773zm-295.823.314l9.456 5.46-9.456 5.457v-10.917zm306.435.134l9.225 5.325-9.225 5.324v-10.65zm-317.437.358v9.932l-8.602-4.965 8.602-4.967zm-39.339.755l7.294 4.212-7.294 4.213v-8.425zm396.25.127v8.169l-7.071-4.084 7.07-4.085zm-408.543.11v7.95l-6.882-3.975 6.882-3.974zm-51.172.194v7.564l-6.55-3.783 6.55-3.781zm12.667.02l6.51 3.761-6.51 3.76v-7.52zm459.796.447l5.742 3.314-5.742 3.313v-6.627zm37.023 1.46v3.706l-3.21-1.852 3.21-1.854zm15.212.574l2.218 1.28-2.218 1.281v-2.56zm35.01.88v.8l-.691-.4.691-.4zM256.694 99.05l13.377 7.724-13.378 7.724V99.051zm-8.161.104v15.24l-13.199-7.62 13.199-7.62zm51 .106v15.029l-13.017-7.515 13.017-7.514zm8.43.148l12.754 7.366-12.755 7.365V99.41zm42.358.322v14.087l-12.202-7.043 12.202-7.044zm-144.249.076l12.065 6.968-12.065 6.967V99.807zm153.221.071l11.944 6.897-11.944 6.896V99.878zm-162.474.405v12.985l-11.242-6.493 11.242-6.492zm204.232.02v12.947l-11.212-6.475 11.212-6.472zm9.671.218l10.833 6.254-10.833 6.254v-12.508zm40.799.8v10.908l-9.445-5.454 9.445-5.454zm-295.556.14l9.206 5.314-9.206 5.314v-10.627zm306.638.48l8.371 4.834-8.37 4.834v-9.668zm-317.866.117v9.434l-8.172-4.717 8.172-4.717zm-38.89 1.033l6.38 3.684-6.38 3.684v-7.368zm395.487.392v6.584l-5.703-3.292 5.703-3.292zm-408.507.048v6.49l-5.62-3.246 5.62-3.244zm-37.471.546l4.674 2.698-4.674 2.7v-5.398zm459.607.12l4.47 2.578-4.47 2.58v-5.159zM41.38 104.2v5.15l-4.46-2.576 4.46-2.574zm509.874 1.253v2.642l-2.285-1.321 2.285-1.321zm15.754.446l1.515.875-1.515.875v-1.75zm34.7.61v.533l-.465-.268.465-.266zm-327.9-21.654v14.357l-12.431-7.177 12.43-7.18zm8.772.07l12.314 7.11-12.314 7.11v-14.22zm42.188.103v14.013l-12.137-7.006 12.137-7.007zm8.983.09l11.978 6.917-11.978 6.915V85.119zm-102.05.122l11.767 6.795-11.768 6.792V85.241zm143.994.021v13.546l-11.733-6.772 11.733-6.774zm9.263.115l11.534 6.659-11.534 6.659V85.377zm-162.62.188v12.941l-11.208-6.47 11.208-6.47zm204.126.2v12.543L415.6 92.036l10.863-6.271zm10.005.392l10.183 5.879-10.183 5.878V86.157zm-255.054.425l9.448 5.454-9.448 5.453V86.582zm-11.067.596v9.715l-8.414-4.857 8.414-4.858zm306.333.047v9.621l-8.332-4.81 8.332-4.81zm11.907.766l7.005 4.045-7.005 4.044v-8.089zm-357.162.447l6.228 3.598-6.228 3.595v-7.193zm-13.195.573v6.05l-5.241-3.025 5.24-3.025zm408.245.405v5.24l-4.538-2.62 4.538-2.62zm-445.285.451l3.759 2.169-3.76 2.168v-4.337zm459.658.208l3.4 1.96-3.4 1.962v-3.922zm-474.348.097v3.725l-3.229-1.861 3.229-1.864zm-35.99.349l2.62 1.515-2.62 1.514v-3.03zm546.077.536v1.959l-1.696-.98 1.696-.98zm16.1.364l1.063.615-1.063.613V91.42zm-233.279-20.82l11.592 6.693-11.592 6.693V70.6zm-9.341.087v13.215l-11.445-6.609 11.445-6.606zm51.037.038v13.14l-11.378-6.572 11.378-6.568zm-92.676.013l11.354 6.555-11.354 6.559V70.739zm-9.47.037v13.038l-11.292-6.52 11.292-6.518zm111.646.062l11.184 6.456-11.184 6.457V70.838zm-153.176.007l11.172 6.45-11.172 6.45v-12.9zm-9.701.223v12.456l-10.784-6.23 10.784-6.226zm204.026.371v11.712l-10.143-5.857 10.143-5.855zm-244.816.388l9.471 5.467-9.471 5.47V71.827zm255.388.155l9.202 5.312-9.202 5.314V71.982zm-266.398.373v9.881l-8.561-4.942 8.56-4.94zm305.789.987v7.908l-6.85-3.956 6.85-3.952zm-344.826.242l6.429 3.71-6.43 3.714v-7.424zm357.653.41l5.722 3.3-5.722 3.304v-6.605zm-370.758.23v6.142l-5.318-3.072 5.318-3.07zm407.858 1.08v3.984l-3.452-1.994 3.452-1.99zm-444.784.062l3.344 1.928-3.344 1.932v-3.86zm-15.036.423v3.014l-2.611-1.509 2.61-1.505zm474.824.005l2.597 1.5-2.597 1.505v-3.005zm-510.276.562l1.626.938-1.626.94v-1.878zm-16.004.117v1.647l-1.425-.826 1.425-.821zm561.61.086v1.474l-1.276-.739 1.276-.735zm16.32.26l.827.475-.827.48v-.956zM385.19 56.297l10.839 6.257-10.84 6.257V56.298zm41.247.033v12.45l-10.781-6.226 10.781-6.224zm-51.07.015v12.42l-10.755-6.21 10.756-6.21zm-41.072.237l10.345 5.972-10.345 5.975V56.583zm102.123.006l10.338 5.966-10.338 5.971V56.59zm-112.329.138v11.661l-10.1-5.833 10.1-5.828zm-40.704.116l9.896 5.712-9.896 5.716V56.843zm-10.457.058v11.31l-9.79-5.656 9.79-5.654zm-40.317.439l9.037 5.215-9.037 5.218V57.34zm244.3.004v10.42l-9.025-5.209 9.026-5.21zm-255.494.338v9.75l-8.442-4.877 8.442-4.873zm266.868.305l7.913 4.568-7.913 4.57v-9.138zm-305.958.696l6.709 3.872-6.71 3.873v-7.745zm344.547.562v6.621l-5.736-3.31 5.736-3.31zm-357.438.033v6.556l-5.677-3.279 5.677-3.277zm371.017.626l4.593 2.651-4.593 2.655v-5.306zm-408.129.61l3.539 2.041-3.539 2.045v-4.086zm444.635.42v3.242l-2.808-1.62 2.808-1.623zm-459.611.124v2.997l-2.595-1.5 2.595-1.497zm475.014.319l2.043 1.178-2.043 1.18v-2.358zm-510.305.51l1.158.668-1.158.67v-1.339zm545.368.075v1.185l-1.028-.592 1.028-.593zm-561.764.182v.821l-.713-.41.713-.411zM411 42.04l10.002 5.774L411 53.592v-11.55zm-10.392.072V53.52l-9.882-5.706 9.882-5.702zm50.986.124v11.157l-9.66-5.58 9.66-5.577zm-91.5.074l9.536 5.504-9.536 5.507V42.311zm-10.776.2v10.614l-9.195-5.31 9.195-5.304zm113.02.014l9.165 5.29-9.165 5.292V42.525zm-153.036.25l8.731 5.04-8.73 5.042V42.776zm-11.238.07v9.943l-8.61-4.973 8.61-4.97zm-39.7.14l8.367 4.83-8.366 4.833v-9.662zm-11.54.173v9.318l-8.068-4.661 8.068-4.657zm255.102.343v8.634l-7.478-4.32 7.478-4.314zm-294.136.327l6.908 3.987-6.908 3.989v-7.976zm306.48.207l6.55 3.78-6.55 3.784v-7.564zm-319.174.278v7.007l-6.067-3.505 6.067-3.502zm356.902.895v5.215l-4.516-2.608 4.516-2.607zm-394.325.256l4.08 2.35-4.08 2.358v-4.708zm408.641.274l3.597 2.077-3.597 2.08v-4.157zm-423.258.274v3.611l-3.127-1.808 3.127-1.803zm459.19.601v2.405l-2.08-1.203 2.08-1.202zm15.816.32l1.531.882-1.53.887v-1.769zm-510.55.085l1.383.797-1.382.8v-1.597zm-16.314.373v.85l-.734-.426.734-.424zM425.786 27.98v10.195l-8.83-5.098 8.83-5.097zm11.187.095l8.668 5.002-8.668 5.004V28.074zm-50.966.159l8.39 4.843-8.39 4.845v-9.688zm-11.473.078v9.53l-8.253-4.765 8.253-4.765zm102.1.04v9.453l-8.19-4.728 8.19-4.726zm-141.413.354l7.57 4.37-7.57 4.372v-8.742zm153.178 0l7.573 4.37-7.573 4.372v-8.742zm-165.205.092v8.56l-7.411-4.281 7.411-4.279zm-38.96.038l7.347 4.24-7.347 4.243v-8.483zm-12.135.021v8.44l-7.306-4.22 7.306-4.22zm-38.752.274l6.832 3.946-6.832 3.947V29.13zm-12.611.249v7.394l-6.402-3.697 6.402-3.697zm306.248.197v7.003l-6.062-3.503 6.062-3.5zm13.276.514l5.17 2.986-5.17 2.988V30.09zm-357.328.163l4.893 2.823-4.893 2.824v-5.647zm-14.065.532v4.583l-3.968-2.292 3.968-2.291zm408.33.258v4.065l-3.523-2.032 3.523-2.033zm14.929.449l2.748 1.584-2.748 1.586v-3.17zm-459.317.382l2.084 1.202-2.084 1.203v-2.405zm494.8.29v1.826l-1.581-.914 1.582-.912zm-510.725.218v1.39l-1.204-.696 1.204-.694zm334.003-18.4v8.708l-7.543-4.353 7.543-4.355zm-39.03.066l7.428 4.289-7.428 4.288v-8.577zm51.063.003l7.419 4.286-7.42 4.284v-8.57zm-63.217.145v8.283l-7.17-4.142 7.17-4.14zm-38.657.283l6.68 3.858-6.68 3.856v-7.714zm140.584.053v7.61l-6.592-3.805 6.592-3.805zm-153.277.166v7.279l-6.3-3.64 6.3-3.64zm-89.264.062l6.192 3.577-6.192 3.575V14.76zm51.075.032l6.145 3.545-6.145 3.545v-7.09zm-12.931.012v7.066l-6.118-3.533 6.118-3.533zm-51.067.013v7.04l-6.097-3.52 6.097-3.52zm268.267.018l6.06 3.502-6.06 3.501v-7.003zm-306.158.353l5.452 3.149-5.452 3.147v-6.296zm-13.604.382v5.534l-4.795-2.767 4.795-2.767zm357.37.082v5.37l-4.65-2.685 4.65-2.685zm14.14.378l3.996 2.307-3.996 2.306V16.03zm-408.174.53l3.08 1.777-3.08 1.777V16.56zm444.399.298v2.957l-2.56-1.478 2.56-1.479zm-459.66.211v2.534l-2.196-1.266 2.196-1.268zm475.17.13l1.97 1.138-1.97 1.137V17.2zm-510.177.73l.705.408-.705.405v-.812zM437.787 0l6.233 3.598-6.233 3.597V0zm38.177.026v7.14l-6.183-3.568 6.183-3.572zm-51.083.043v7.056l-6.113-3.527 6.113-3.529zm64.052.083l5.969 3.446-5.969 3.445V.152zm-102.032.15l5.704 3.296-5.704 3.294V.302zM233.813.458l5.433 3.14-5.433 3.138V.458zm139.782 0v6.277l-5.434-3.137 5.434-3.14zM220.384.514V6.68l-5.34-3.082 5.34-3.084zm51.054.009V6.67l-5.322-3.073 5.322-3.075zM526.692.6v5.993l-5.188-2.996L526.692.6zM284.97.625l5.147 2.973-5.147 2.972V.625zm37.415.096v5.752l-4.982-2.875L322.384.72zm13.703.01l4.965 2.867-4.965 2.866V.73zm204.346.18l4.65 2.687-4.65 2.684V.912zM183.16 1.17l4.206 2.429-4.206 2.424V1.17zm394.036.396V5.63l-3.523-2.031 3.523-2.033zm-408.531.088v3.888L165.3 3.598l3.365-1.945zm423.394.239l2.952 1.706-2.952 1.705V1.892zm35.635.64V4.66l-1.838-1.061 1.838-1.065zm-494.79.028l1.795 1.038-1.795 1.036V2.56zm-16.047.389v1.296l-1.122-.647 1.122-.65zm514.35 310.422l1.94 1.12-1.94 1.118v-2.238zm-15.794.116v2.002l-1.736-.998 1.736-1.004zm-35.056.243l1.313.76-1.313.757v-1.517zm-16.228.146v1.229l-1.065-.614 1.065-.615zm-34.602.256l.62.359-.62.356v-.715zm-16.663.097v.521l-.45-.26.45-.261zm128.077-15.481v2.001l-1.732-1 1.732-1.001zm-35.1.168l1.443.833-1.442.833v-1.666zm-16.129.126v1.416l-1.225-.709 1.225-.707zm-34.72.238l.814.47-.814.47v-.94zm-16.558.14v.66l-.571-.33.57-.33zm92.927-15.264l1.479.854-1.479.853v-1.707zm-16.089.095v1.517l-1.314-.758 1.314-.76zm-34.79.216l.938.543-.938.543v-1.086zm-16.477.143v.8l-.693-.4.693-.4zm76.798-15.098v1.517l-1.316-.76 1.316-.757zm-34.833.145l1.062.613-1.062.614v-1.227zm-16.396.142v.94l-.815-.47.815-.47zm-34.461.21l.451.26-.451.26v-.52zm76.387-15.095l1.063.614-1.063.617v-1.23zm-16.353.074v1.086l-.938-.546.938-.54zm-34.545.213l.572.327-.572.332v-.66zm60.076-14.952v1.085l-.941-.545.94-.54zm-34.584.142l.691.398-.691.403v-.8zm-16.64.139v.52l-.45-.26.45-.26zm42.17-14.878l.692.398-.692.402v-.8zm-16.6.07v.657l-.571-.329.57-.329zm25.531-14.741v.658l-.57-.33.57-.328zM4.43 104.308l4.27 2.467-4.27 2.467v-4.934zm10.777-13.732v2.919l-2.528-1.46 2.528-1.459zM5.463 76.62l1.17.675-1.17.677v-1.352z" opacity=".05"/>
</svg>
