<svg version="1.1" id="Layer_1" xmlns="http://www.w3.org/2000/svg" x="0" y="0" viewBox="0 0 200 200" xml:space="preserve"><style>.st1{fill:#ffd069}</style><path d="M127.13 180.49L30.1 79.76c-3.2-3.32-3.18-8.74.05-12.03L88.89 7.82a8.143 8.143 0 0111.7.05l97.03 100.73c3.2 3.32 3.18 8.74-.05 12.03l-58.74 59.91a8.126 8.126 0 01-11.7-.05z" fill="#50831c"/><path class="st1" d="M90.55 74.02L75.03 57.9a2.896 2.896 0 01.02-4.01l9.79-9.98a2.709 2.709 0 013.9.02l15.52 16.12a2.896 2.896 0 01-.02 4.01l-9.79 9.98a2.717 2.717 0 01-3.9-.02z"/><path d="M132.11 193.69L9.71 128.48c-4.04-2.15-5.63-7.31-3.54-11.47L44.2 41.44c2.09-4.16 7.11-5.8 11.15-3.64l122.4 65.21c4.04 2.15 5.63 7.31 3.54 11.47l-38.03 75.57c-2.09 4.15-7.11 5.79-11.15 3.64z" fill="#53d07e"/><path class="st1" d="M65.53 103.91L45.95 93.48c-1.35-.72-1.88-2.44-1.18-3.82l6.34-12.59c.7-1.39 2.37-1.93 3.72-1.21L74.4 86.28c1.35.72 1.88 2.44 1.18 3.82l-6.34 12.59c-.69 1.39-2.36 1.94-3.71 1.22z"/><g><path d="M145.99 194.64H8.39c-4.61 0-8.39-3.78-8.39-8.39v-85.34c0-4.61 3.78-8.39 8.39-8.39h137.6c4.61 0 8.39 3.78 8.39 8.39v85.34c0 4.61-3.78 8.39-8.39 8.39z" fill="#73e6ff"/><path class="st1" d="M46.82 146.41H24.85c-1.54 0-2.8-1.26-2.8-2.8v-14.26c0-1.54 1.26-2.8 2.8-2.8h21.97c1.54 0 2.8 1.26 2.8 2.8v14.26c0 1.55-1.26 2.8-2.8 2.8z"/></g><path fill="#caffff" d="M107.51 163.43h35.84v19.86h-35.84z"/></svg>