<svg width="141" height="37" viewBox="0 0 141 37" fill="none" xmlns="http://www.w3.org/2000/svg">
<path d="M52.219 11.7242H56.1529V8.02629H52.219V2.00732L48.2142 3.87989V8.02629H47.2779L45.2794 8.96257V11.7242H48.2142V22.6842C48.2142 26.7362 51.2512 28.0187 53.8083 28.0423C55.1993 28.0696 56.5676 27.6865 57.7422 26.9408V24.3286H54.5951C52.3055 24.3286 52.2347 23.5969 52.2347 20.8825L52.219 11.7242Z" fill="#F4F4F8"/>
<path d="M12.0222 32.0305H4.00478V24.0288L0 25.9092V36.0353H4.00478H12.0143L12.0222 32.0305Z" fill="#00A0DF"/>
<path d="M128.216 4.01308H136.225V12.0148L140.23 10.1343V0.00830078H136.225H128.216V4.01308Z" fill="#00A0DF"/>
<path d="M17.9385 20.3221C22.6593 20.3221 24.4138 18.1427 24.4138 15.6014V13.3748C24.4138 10.8177 22.4862 8.04817 18.1195 8.04817H14.6576C12.9722 7.99459 11.3332 8.60542 10.094 9.74899C8.85477 10.8926 8.11451 12.4773 8.03281 14.1616C8.03281 14.8382 8.03281 19.7635 8.03281 20.3143C8.03281 24.1145 11.5891 28.0327 16.6875 28.0327C19.4387 28.0593 22.0969 27.0382 24.1227 25.1767L21.7623 21.9351C19.6616 23.3749 19.0715 24.0043 16.7898 24.0043C14.5081 24.0043 12.0061 22.7219 12.0061 20.3064L17.9385 20.3221ZM17.9385 12.0136C19.9212 12.0136 20.3776 12.6037 20.3776 13.8862V14.7516C20.3776 16.4511 19.5908 16.3252 17.8834 16.3252H12.0297V14.1616C12.0284 13.8604 12.0901 13.5623 12.211 13.2864C12.3319 13.0106 12.5093 12.7631 12.7317 12.56C12.954 12.3569 13.2165 12.2026 13.5021 12.1072C13.7878 12.0117 14.0903 11.9772 14.3901 12.0057L17.9385 12.0136Z" fill="#F4F4F8"/>
<path d="M114.179 27.7423L113.81 26.4834V0L109.766 1.88043V8.47375C109.045 8.16519 108.268 8.01236 107.484 8.02528H104.014C103.194 8.00317 102.378 8.14588 101.614 8.44497C100.85 8.74405 100.154 9.19343 99.5673 9.76646C98.9804 10.3395 98.5144 11.0245 98.197 11.781C97.8797 12.5374 97.7174 13.3498 97.7198 14.1701C97.7198 14.8468 97.7198 19.7721 97.7198 20.3228C97.7198 24.1231 100.977 28.0413 106.076 28.0413C107.423 27.9717 108.723 27.5246 109.829 26.7509L110.135 27.7816L114.179 27.7423ZM101.669 20.0396V14.4691C101.659 14.1526 101.712 13.8372 101.826 13.5417C101.94 13.2461 102.112 12.9766 102.332 12.749C102.553 12.5214 102.816 12.3405 103.108 12.217C103.4 12.0934 103.713 12.0299 104.03 12.0301H107.358C109.309 12.0301 109.773 13.0922 109.789 14.3511V22.817C108.778 23.6744 107.478 24.1135 106.154 24.0444C103.857 24.0444 101.669 22.4629 101.669 20.0396Z" fill="#F4F4F8"/>
<path d="M35.1141 8.02637C33.6247 8.08321 32.1684 8.48162 30.8575 9.19082L30.5979 8.32535H26.5931L26.955 9.54488V27.7434H30.9598V13.2113C32.1721 12.4564 33.5681 12.0483 34.9961 12.0311C37.2069 12.0311 39.0952 13.0068 39.0952 15.7763V27.7434H43.1V15.4852C43.1 10.6543 40.0787 8.02637 35.1141 8.02637Z" fill="#F4F4F8"/>
<path d="M87.4989 8.02637C86.0095 8.08321 84.5532 8.48162 83.2423 9.19082L82.9906 8.32535H78.9779L79.3398 9.54488V27.7434H83.3525V13.2113C84.5615 12.4556 85.9552 12.0473 87.3809 12.0311C89.5996 12.0311 91.48 13.0068 91.48 15.7763V27.7434H95.4848V15.4852C95.4848 10.6543 92.4635 8.02637 87.4989 8.02637Z" fill="#F4F4F8"/>
<path d="M126.154 8.02567H122.685C121.865 8.00355 121.049 8.14626 120.285 8.44535C119.521 8.74444 118.825 9.19381 118.238 9.76685C117.651 10.3399 117.185 11.0249 116.868 11.7813C116.55 12.5378 116.388 13.3502 116.39 14.1705V21.889C116.388 22.7093 116.55 23.5217 116.868 24.2781C117.185 25.0346 117.651 25.7196 118.238 26.2926C118.825 26.8657 119.521 27.315 120.285 27.6141C121.049 27.9132 121.865 28.0559 122.685 28.0338H126.154C129.829 28.0338 132.15 25.2643 132.15 22.6993V13.3759C132.181 10.7952 129.821 8.02567 126.154 8.02567ZM128.145 21.6687C128.145 22.9433 127.689 24.029 125.714 24.029H122.693C122.376 24.0292 122.062 23.9656 121.771 23.8421C121.479 23.7186 121.215 23.5377 120.995 23.3101C120.775 23.0825 120.603 22.8129 120.489 22.5174C120.375 22.2219 120.322 21.9065 120.332 21.59V14.4695C120.322 14.153 120.375 13.8376 120.489 13.542C120.603 13.2465 120.775 12.9769 120.995 12.7494C121.215 12.5218 121.479 12.3408 121.771 12.2173C122.062 12.0938 122.376 12.0303 122.693 12.0304H125.706C127.689 12.0304 128.145 13.1162 128.145 14.3908V21.6687Z" fill="#F4F4F8"/>
<path d="M76.7987 27.7435L76.3345 26.17V13.3767C76.3345 10.8196 73.9741 8.05012 70.3391 8.05012H66.5783C65.1931 7.98235 63.8275 8.39814 62.7152 9.2263C61.6028 10.0545 60.8129 11.2435 60.4806 12.5899L63.9504 14.2186V14.1635C63.9488 13.8629 64.0105 13.5654 64.1316 13.2902C64.2526 13.0151 64.4303 12.7686 64.653 12.5667C64.8756 12.3648 65.1384 12.2121 65.424 12.1185C65.7096 12.0249 66.0118 11.9925 66.3108 12.0234H69.9143C71.897 12.0234 72.3533 13.1092 72.3533 14.3838V15.7371H66.4209C61.7002 15.7371 59.9456 17.9165 59.9456 20.4972V22.7081C59.9456 25.273 61.8733 28.0425 66.24 28.0425H68.1204C68.9051 28.079 69.6892 27.9586 70.4268 27.6884C71.1644 27.4182 71.8408 27.0036 72.4163 26.4689L72.8018 27.7671L76.7987 27.7435ZM72.3297 21.8898C72.3311 22.191 72.2693 22.4891 72.1484 22.7649C72.0275 23.0408 71.8502 23.2882 71.6278 23.4913C71.4054 23.6944 71.1429 23.8487 70.8573 23.9442C70.5716 24.0396 70.2692 24.0742 69.9694 24.0456H66.3816C64.4067 24.0456 63.9504 23.4555 63.9504 22.1809V21.1581C63.9504 19.5845 64.7372 19.7497 66.4445 19.7497H72.3297V21.8898Z" fill="#F4F4F8"/>
</svg>
