<svg width="16" height="16" viewBox="0 0 16 16" fill="none" xmlns="http://www.w3.org/2000/svg">
<path fill-rule="evenodd" clip-rule="evenodd" d="M9.98252 8.94258C9.42054 9.37688 8.60082 10.0104 8 10C7.39918 10.0104 6.57946 9.37688 6.01748 8.94258C5.90132 8.85281 5.79618 8.77155 5.70625 8.70625C1.86278 5.91706 1.31044 5.48481 0.488855 4.84184C0.423998 4.79109 0.357464 4.73902 0.2875 4.68438C0.10625 4.54063 0 4.325 0 4.09375V3.5C0 2.67188 0.671875 2 1.5 2H14.5C15.3281 2 16 2.67188 16 3.5V4.09375C16 4.325 15.8937 4.54375 15.7125 4.68438C15.6589 4.72643 15.6073 4.76695 15.5569 4.80651C14.7088 5.47245 14.2081 5.86561 10.2937 8.70625C10.2038 8.77155 10.0987 8.85281 9.98252 8.94258ZM16 6.10934C16 5.95621 15.8187 5.86559 15.6969 5.96246C14.9969 6.50621 14.0719 7.19996 10.8844 9.51559C10.7877 9.58609 10.6794 9.66987 10.5613 9.76123C9.90461 10.2692 8.94557 11.011 8 11.0031C7.05881 11.0084 6.11537 10.2804 5.44829 9.76569C5.32909 9.67372 5.21871 9.58855 5.11875 9.51559C1.93125 7.19996 1.00312 6.50934 0.303125 5.96559C0.178125 5.86871 0 5.95621 0 6.11246V12.5C0 13.3281 0.671875 14 1.5 14H14.5C15.3281 14 16 13.3281 16 12.5V6.10934Z" fill="black"/>
<mask id="mask0" mask-type="alpha" maskUnits="userSpaceOnUse" x="0" y="2" width="16" height="12">
<path fill-rule="evenodd" clip-rule="evenodd" d="M9.98252 8.94258C9.42054 9.37688 8.60082 10.0104 8 10C7.39918 10.0104 6.57946 9.37688 6.01748 8.94258C5.90132 8.85281 5.79618 8.77155 5.70625 8.70625C1.86278 5.91706 1.31044 5.48481 0.488855 4.84184C0.423998 4.79109 0.357464 4.73902 0.2875 4.68438C0.10625 4.54063 0 4.325 0 4.09375V3.5C0 2.67188 0.671875 2 1.5 2H14.5C15.3281 2 16 2.67188 16 3.5V4.09375C16 4.325 15.8937 4.54375 15.7125 4.68438C15.6589 4.72643 15.6073 4.76695 15.5569 4.80651C14.7088 5.47245 14.2081 5.86561 10.2937 8.70625C10.2038 8.77155 10.0987 8.85281 9.98252 8.94258ZM16 6.10934C16 5.95621 15.8187 5.86559 15.6969 5.96246C14.9969 6.50621 14.0719 7.19996 10.8844 9.51559C10.7877 9.58609 10.6794 9.66987 10.5613 9.76123C9.90461 10.2692 8.94557 11.011 8 11.0031C7.05881 11.0084 6.11537 10.2804 5.44829 9.76569C5.32909 9.67372 5.21871 9.58855 5.11875 9.51559C1.93125 7.19996 1.00312 6.50934 0.303125 5.96559C0.178125 5.86871 0 5.95621 0 6.11246V12.5C0 13.3281 0.671875 14 1.5 14H14.5C15.3281 14 16 13.3281 16 12.5V6.10934Z" fill="white"/>
</mask>
<g mask="url(#mask0)">
<path fill-rule="evenodd" clip-rule="evenodd" d="M0 0H16V16H0V0Z" fill="#F4F4F8"/>
</g>
</svg>
