<svg width="16" height="16" viewBox="0 0 16 16" fill="none" xmlns="http://www.w3.org/2000/svg">
<path fill-rule="evenodd" clip-rule="evenodd" d="M8 0.25C3.72009 0.25 0.25 3.72134 0.25 8C0.25 12.2812 3.72009 15.75 8 15.75C12.2799 15.75 15.75 12.2812 15.75 8C15.75 3.72134 12.2799 0.25 8 0.25ZM8 3.6875C8.72487 3.6875 9.3125 4.27513 9.3125 5C9.3125 5.72487 8.72487 6.3125 8 6.3125C7.27513 6.3125 6.6875 5.72487 6.6875 5C6.6875 4.27513 7.27513 3.6875 8 3.6875ZM9.375 12C9.58209 12 9.75 11.8321 9.75 11.625V10.875C9.75 10.6679 9.58209 10.5 9.375 10.5H9V7.375C9 7.16791 8.83209 7 8.625 7H6.625C6.41791 7 6.25 7.16791 6.25 7.375V8.125C6.25 8.33209 6.41791 8.5 6.625 8.5H7V10.5H6.625C6.41791 10.5 6.25 10.6679 6.25 10.875V11.625C6.25 11.8321 6.41791 12 6.625 12H9.375Z" fill="black"/>
<mask id="mask0" mask-type="alpha" maskUnits="userSpaceOnUse" x="0" y="0" width="16" height="16">
<path fill-rule="evenodd" clip-rule="evenodd" d="M8 0.25C3.72009 0.25 0.25 3.72134 0.25 8C0.25 12.2812 3.72009 15.75 8 15.75C12.2799 15.75 15.75 12.2812 15.75 8C15.75 3.72134 12.2799 0.25 8 0.25ZM8 3.6875C8.72487 3.6875 9.3125 4.27513 9.3125 5C9.3125 5.72487 8.72487 6.3125 8 6.3125C7.27513 6.3125 6.6875 5.72487 6.6875 5C6.6875 4.27513 7.27513 3.6875 8 3.6875ZM9.375 12C9.58209 12 9.75 11.8321 9.75 11.625V10.875C9.75 10.6679 9.58209 10.5 9.375 10.5H9V7.375C9 7.16791 8.83209 7 8.625 7H6.625C6.41791 7 6.25 7.16791 6.25 7.375V8.125C6.25 8.33209 6.41791 8.5 6.625 8.5H7V10.5H6.625C6.41791 10.5 6.25 10.6679 6.25 10.875V11.625C6.25 11.8321 6.41791 12 6.625 12H9.375Z" fill="white"/>
</mask>
<g mask="url(#mask0)">
<path fill-rule="evenodd" clip-rule="evenodd" d="M0 0H16V16H0V0Z" fill="#F4F4F8"/>
</g>
</svg>
