<svg width="342" height="66" viewBox="0 0 342 66" fill="none" xmlns="http://www.w3.org/2000/svg">
<path d="M183.66 27.23L181.2 26.81V24.71H191.31V26.81L188.79 27.23V44.72L191.31 45.05V47H181.23V45.02L183.66 44.69V27.23ZM195.45 33.47L193.68 32.93V30.59L199.14 29.93H199.23L200.01 30.56V31.67L199.98 32.36C200.68 31.7 201.57 31.14 202.65 30.68C203.73 30.22 204.86 29.99 206.04 29.99C207.24 29.99 208.18 30.21 208.86 30.65C209.56 31.07 210.06 31.75 210.36 32.69C210.68 33.63 210.84 34.91 210.84 36.53V44.75L212.52 44.99V47H204.36V45.02L205.83 44.75V36.56C205.83 35.6 205.76 34.86 205.62 34.34C205.5 33.8 205.28 33.41 204.96 33.17C204.64 32.93 204.18 32.81 203.58 32.81C202.66 32.81 201.62 33.24 200.46 34.1V44.75L202.11 45.02V47H193.8V45.02L195.45 44.75V33.47ZM218.262 44.51C218.402 44.73 218.722 44.93 219.222 45.11C219.742 45.29 220.262 45.38 220.782 45.38C221.602 45.38 222.222 45.21 222.642 44.87C223.082 44.51 223.302 44.05 223.302 43.49C223.302 42.89 223.022 42.4 222.462 42.02C221.902 41.62 220.982 41.14 219.702 40.58L218.562 40.07C217.262 39.49 216.282 38.79 215.622 37.97C214.982 37.13 214.662 36.07 214.662 34.79C214.662 33.87 214.932 33.05 215.472 32.33C216.012 31.59 216.792 31.01 217.812 30.59C218.832 30.17 220.032 29.96 221.412 29.96C222.372 29.96 223.202 30.02 223.902 30.14C224.602 30.26 225.312 30.41 226.032 30.59C226.512 30.73 226.872 30.81 227.112 30.83V34.91H224.442L223.662 32.6C223.562 32.42 223.322 32.26 222.942 32.12C222.562 31.96 222.132 31.88 221.652 31.88C220.892 31.88 220.292 32.05 219.852 32.39C219.412 32.71 219.192 33.15 219.192 33.71C219.192 34.35 219.442 34.86 219.942 35.24C220.442 35.6 221.242 36.03 222.342 36.53L222.972 36.8C224.592 37.48 225.862 38.22 226.782 39.02C227.702 39.8 228.162 40.88 228.162 42.26C228.162 43.74 227.572 44.96 226.392 45.92C225.212 46.86 223.472 47.33 221.172 47.33C220.112 47.33 219.172 47.24 218.352 47.06C217.532 46.9 216.632 46.68 215.652 46.4L214.662 46.13V42.14H217.512L218.262 44.51ZM243.892 47.3C243.172 47.3 242.652 47.15 242.332 46.85C242.012 46.53 241.852 46.07 241.852 45.47V44.81C241.372 45.47 240.652 46.06 239.692 46.58C238.732 47.08 237.762 47.33 236.782 47.33C234.822 47.33 233.422 46.85 232.582 45.89C231.762 44.91 231.352 43.28 231.352 41V32.66L229.942 32.27V30.35L235.582 29.96H235.612L236.272 30.38V41.12C236.272 42.42 236.432 43.33 236.752 43.85C237.072 44.35 237.642 44.6 238.462 44.6C239.582 44.6 240.522 44.22 241.282 43.46V32.66L239.422 32.21V30.35L245.362 29.96H245.452L246.172 30.38V44.93H247.762V46.85C247.082 46.99 246.452 47.1 245.872 47.18C245.312 47.26 244.652 47.3 243.892 47.3ZM249.698 45.02L251.528 44.75V33.47L249.758 32.93V30.59L254.738 29.93H254.828L255.668 30.56V31.28L255.578 33.77H255.668C255.808 33.31 256.128 32.78 256.628 32.18C257.128 31.56 257.758 31.03 258.518 30.59C259.298 30.13 260.138 29.9 261.038 29.9C261.558 29.9 261.958 29.97 262.238 30.11V35.33C261.918 35.09 261.568 34.9 261.188 34.76C260.828 34.62 260.358 34.55 259.778 34.55C259.058 34.55 258.408 34.65 257.828 34.85C257.248 35.03 256.788 35.24 256.448 35.48V44.75L259.748 45.05V47H249.698V45.02ZM263.662 42.2C263.662 40.44 264.552 39.09 266.332 38.15C268.132 37.21 270.492 36.73 273.412 36.71V36.11C273.412 35.39 273.332 34.82 273.172 34.4C273.012 33.98 272.722 33.67 272.302 33.47C271.882 33.25 271.262 33.14 270.442 33.14C269.462 33.14 268.582 33.26 267.802 33.5C267.042 33.72 266.242 34.02 265.402 34.4L264.382 32.24C264.702 31.98 265.222 31.67 265.942 31.31C266.662 30.93 267.522 30.61 268.522 30.35C269.542 30.07 270.602 29.93 271.702 29.93C273.302 29.93 274.552 30.14 275.452 30.56C276.372 30.98 277.022 31.63 277.402 32.51C277.802 33.39 278.002 34.59 278.002 36.11V45.02H279.562V46.91C279.102 47.01 278.462 47.11 277.642 47.21C276.822 47.31 276.122 47.36 275.542 47.36C274.782 47.36 274.272 47.25 274.012 47.03C273.772 46.81 273.652 46.37 273.652 45.71V45.02C273.152 45.62 272.482 46.16 271.642 46.64C270.802 47.1 269.832 47.33 268.732 47.33C267.792 47.33 266.932 47.13 266.152 46.73C265.392 46.31 264.782 45.72 264.322 44.96C263.882 44.18 263.662 43.26 263.662 42.2ZM271.072 44.57C271.432 44.57 271.832 44.47 272.272 44.27C272.712 44.05 273.092 43.79 273.412 43.49V38.72C271.852 38.72 270.692 39 269.932 39.56C269.192 40.12 268.822 40.84 268.822 41.72C268.822 42.62 269.022 43.32 269.422 43.82C269.822 44.32 270.372 44.57 271.072 44.57ZM282.872 33.47L281.102 32.93V30.59L286.562 29.93H286.652L287.432 30.56V31.67L287.402 32.36C288.102 31.7 288.992 31.14 290.072 30.68C291.152 30.22 292.282 29.99 293.462 29.99C294.662 29.99 295.602 30.21 296.282 30.65C296.982 31.07 297.482 31.75 297.782 32.69C298.102 33.63 298.262 34.91 298.262 36.53V44.75L299.942 44.99V47H291.782V45.02L293.252 44.75V36.56C293.252 35.6 293.182 34.86 293.042 34.34C292.922 33.8 292.702 33.41 292.382 33.17C292.062 32.93 291.602 32.81 291.002 32.81C290.082 32.81 289.042 33.24 287.882 34.1V44.75L289.532 45.02V47H281.222V45.02L282.872 44.75V33.47ZM301.604 38.78C301.604 37 301.964 35.44 302.684 34.1C303.404 32.76 304.414 31.73 305.714 31.01C307.014 30.27 308.514 29.9 310.214 29.9C311.054 29.9 311.774 29.96 312.374 30.08C312.994 30.18 313.624 30.33 314.264 30.53C314.844 30.69 315.204 30.78 315.344 30.8L315.134 36.23H312.104L311.324 32.78C311.264 32.52 311.094 32.34 310.814 32.24C310.554 32.12 310.234 32.06 309.854 32.06C308.914 32.06 308.174 32.52 307.634 33.44C307.114 34.36 306.854 35.89 306.854 38.03C306.854 40.07 307.184 41.64 307.844 42.74C308.524 43.82 309.434 44.36 310.574 44.36C312.054 44.36 313.414 43.98 314.654 43.22L315.464 44.99C314.984 45.53 314.194 46.06 313.094 46.58C311.994 47.08 310.774 47.33 309.434 47.33C306.814 47.33 304.854 46.56 303.554 45.02C302.254 43.46 301.604 41.38 301.604 38.78ZM325.377 47.33C322.637 47.33 320.607 46.56 319.287 45.02C317.967 43.46 317.307 41.34 317.307 38.66C317.307 36.84 317.647 35.27 318.327 33.95C319.007 32.63 319.957 31.63 321.177 30.95C322.417 30.25 323.867 29.9 325.527 29.9C327.627 29.9 329.227 30.43 330.327 31.49C331.447 32.55 332.027 34.05 332.067 35.99C332.067 37.27 331.977 38.3 331.797 39.08H322.407C322.507 40.78 322.917 42.08 323.637 42.98C324.377 43.86 325.407 44.3 326.727 44.3C327.467 44.3 328.237 44.18 329.037 43.94C329.857 43.68 330.517 43.39 331.017 43.07L331.857 44.9C331.337 45.48 330.447 46.03 329.187 46.55C327.947 47.07 326.677 47.33 325.377 47.33ZM327.297 37.1L327.327 35.84C327.327 34.58 327.157 33.62 326.817 32.96C326.477 32.3 325.897 31.97 325.077 31.97C324.237 31.97 323.587 32.34 323.127 33.08C322.667 33.8 322.417 35.14 322.377 37.1H327.297Z" fill="black"/>
<path d="M32.5167 62.5943C49.1282 62.5943 62.5945 49.128 62.5945 32.5165C62.5945 15.905 49.1282 2.43872 32.5167 2.43872C15.9053 2.43872 2.43896 15.905 2.43896 32.5165C2.43896 49.128 15.9053 62.5943 32.5167 62.5943Z" fill="#8CC63F"/>
<path d="M32.5165 65.033C14.5837 65.033 0 50.4494 0 32.5165C0 14.5837 14.5837 0 32.5165 0C50.4494 0 65.033 14.5837 65.033 32.5165C65.033 50.4494 50.4494 65.033 32.5165 65.033ZM32.5165 4.87748C17.2744 4.87748 4.87748 17.2744 4.87748 32.5165C4.87748 47.7586 17.2744 60.1556 32.5165 60.1556C47.7586 60.1556 60.1556 47.7586 60.1556 32.5165C60.1556 17.2744 47.7586 4.87748 32.5165 4.87748Z" fill="#15840C"/>
<path d="M32.5164 62.5944V52.0265C32.5164 52.0265 45.523 49.5878 45.523 36.5812C45.523 23.5746 32.5164 15.4454 32.5164 15.4454C32.5164 15.4454 19.5098 23.5746 19.5098 36.5812C19.5098 49.5878 32.5164 52.0265 32.5164 52.0265V34.1424" fill="#8CC63F"/>
<path d="M32.5166 65.0329C31.1672 65.0329 30.0779 63.9436 30.0779 62.5942V53.9123C24.7208 52.1889 17.0713 47.0757 17.0713 36.581C17.0713 22.3875 30.6469 13.7381 31.2241 13.3804L32.5166 12.5675L33.8092 13.3723C34.3863 13.7381 47.962 22.3875 47.962 36.581C47.962 47.0757 40.3125 52.1889 34.9554 53.9123V62.5942C34.9554 63.9436 33.8661 65.0329 32.5166 65.0329ZM32.5166 18.4367C29.4438 20.7779 21.9488 27.4276 21.9488 36.581C21.9488 43.9459 26.81 47.287 30.0779 48.6934V34.1422C30.0779 32.7928 31.1672 31.7035 32.5166 31.7035C33.8661 31.7035 34.9554 32.7928 34.9554 34.1422V48.6771C38.2233 47.2464 43.0845 43.889 43.0845 36.581C43.0845 27.4276 35.5976 20.7779 32.5166 18.4367Z" fill="#15840C"/>
<path d="M92.886 47.0567C98.9276 47.0567 102.35 43.0406 102.35 39.0594C102.35 35.0083 99.7657 32.1096 94.8768 31.1319L91.4195 30.4683C89.219 30.0143 87.9614 28.3729 87.9614 26.8363C87.9614 24.7409 90.0221 22.855 92.6763 22.855C95.5751 22.855 97.4261 25.0203 97.9147 26.976L101.896 25.7187C101.337 22.7502 98.7878 19.0135 92.6064 19.0135C87.6826 19.0135 83.5611 22.7154 83.5611 27.2204C83.5611 30.7826 86.0063 33.7511 90.5115 34.6591L93.864 35.3575C96.1686 35.8464 97.9147 37.1037 97.9147 39.3388C97.9147 41.6437 95.68 43.1803 92.9559 43.1803C89.6734 43.1803 87.5078 41.1199 86.9144 37.9419L82.7579 39.0594C83.1424 42.9358 86.4949 47.0567 92.886 47.0567ZM114.97 31.2715C117.555 31.2715 119.685 32.843 119.824 35.4972H110.046C110.43 32.9478 112.421 31.2715 114.97 31.2715ZM123.981 38.6403C124.05 38.1863 124.05 37.7673 124.05 37.3481C124.05 31.7255 120.767 27.7093 114.97 27.7093C109.557 27.7093 105.576 32.1096 105.576 37.3831C105.576 42.9358 109.837 47.0917 115.354 47.0917C119.056 47.0917 122.653 45.0312 123.701 41.5389L120.244 40.3515C119.476 42.6216 117.555 43.4946 115.284 43.4946C112.56 43.4946 109.906 41.504 109.837 38.6403H123.981ZM136.456 31.2715C139.041 31.2715 141.171 32.843 141.31 35.4972H131.532C131.916 32.9478 133.906 31.2715 136.456 31.2715ZM145.466 38.6403C145.536 38.1863 145.536 37.7673 145.536 37.3481C145.536 31.7255 142.253 27.7093 136.456 27.7093C131.043 27.7093 127.062 32.1096 127.062 37.3831C127.062 42.9358 131.322 47.0917 136.84 47.0917C140.542 47.0917 144.139 45.0312 145.187 41.5389L141.73 40.3515C140.961 42.6216 139.041 43.4946 136.77 43.4946C134.046 43.4946 131.392 41.504 131.322 38.6403H145.466ZM148.513 37.3831C148.513 42.412 152.32 47.0219 157.698 47.0219C159.199 47.0219 162.482 46.2536 163.948 43.8439V46.7425H168V18.3151H163.844V30.7477C162.447 28.5475 159.444 27.7443 157.802 27.7443C151.97 27.7443 148.513 32.7034 148.513 37.3831ZM163.913 37.3831C163.913 40.596 161.679 43.2502 158.326 43.2502C154.974 43.2502 152.738 40.596 152.738 37.3831C152.738 34.1701 154.939 31.4811 158.326 31.4811C161.679 31.4811 163.913 34.1701 163.913 37.3831Z" fill="#8CC63F"/>
</svg>
