<svg version="1.1" id="Layer_1" xmlns="http://www.w3.org/2000/svg" x="0" y="0" viewBox="0 0 200 200" xml:space="preserve"><style>.st1{fill:#5f6d77}.st2{fill:#eab00f}.st3{fill:#efe059}</style><path fill="#707c87" d="M7.2 0h184.09v172.73H7.2z"/><path class="st1" d="M7.2 172.73h18.18V200H7.2zM173.11 172.73h18.18V200h-18.18z"/><circle class="st2" cx="98.11" cy="81.82" r="46.67"/><circle class="st3" cx="98.11" cy="81.82" r="40.61"/><path class="st3" d="M103.14 52.12H93.09c-1.91 0-3.46-1.55-3.46-3.46V21.64c0-1.91 1.55-3.46 3.46-3.46h10.05c1.91 0 3.46 1.55 3.46 3.46v27.02c0 1.91-1.55 3.46-3.46 3.46zM103.14 145.45H93.09c-1.91 0-3.46-1.55-3.46-3.46v-27.02c0-1.91 1.55-3.46 3.46-3.46h10.05c1.91 0 3.46 1.55 3.46 3.46v27.02c0 1.92-1.55 3.46-3.46 3.46zM127.81 86.84V76.79c0-1.91 1.55-3.46 3.46-3.46h27.02c1.91 0 3.46 1.55 3.46 3.46v10.05c0 1.91-1.55 3.46-3.46 3.46h-27.02c-1.91 0-3.46-1.55-3.46-3.46zM34.48 86.84V76.79c0-1.91 1.55-3.46 3.46-3.46h27.02c1.91 0 3.46 1.55 3.46 3.46v10.05c0 1.91-1.55 3.46-3.46 3.46H37.94c-1.91 0-3.46-1.55-3.46-3.46zM115.56 106.37l7.1-7.1a3.458 3.458 0 014.89 0l19.1 19.1a3.458 3.458 0 010 4.89l-7.1 7.1a3.458 3.458 0 01-4.89 0l-19.1-19.1a3.458 3.458 0 010-4.89zM49.56 40.37l7.1-7.1a3.458 3.458 0 014.89 0l19.1 19.1a3.458 3.458 0 010 4.89l-7.1 7.1a3.458 3.458 0 01-4.89 0l-19.1-19.1c-1.35-1.34-1.35-3.54 0-4.89z"/><g><path class="st3" d="M73.56 99.26l7.1 7.1a3.458 3.458 0 010 4.89l-19.1 19.1a3.458 3.458 0 01-4.89 0l-7.1-7.1a3.458 3.458 0 010-4.89l19.1-19.1a3.458 3.458 0 014.89 0zM139.56 33.27l7.1 7.1a3.458 3.458 0 010 4.89l-19.1 19.1a3.458 3.458 0 01-4.89 0l-7.1-7.1a3.458 3.458 0 010-4.89l19.1-19.1a3.458 3.458 0 014.89 0z"/></g><g><path class="st2" d="M79.41 71.77c0-4.48 3.61-8.13 8.09-8.13s8.09 3.66 8.09 8.13c0 4.43-3.61 8.09-8.09 8.09s-8.09-3.66-8.09-8.09zm3.93 28.05l23.3-35.77h6.17L89.55 99.82h-6.21zm1.32-28.05c0 1.51 1.28 2.79 2.83 2.79s2.83-1.28 2.83-2.79c0-1.55-1.28-2.83-2.83-2.83s-2.83 1.28-2.83 2.83zm15.99 20.19c0-4.48 3.61-8.13 8.09-8.13s8.09 3.65 8.09 8.13c0 4.43-3.61 8.04-8.09 8.04s-8.09-3.61-8.09-8.04zm5.25 0c0 1.51 1.28 2.79 2.83 2.79s2.83-1.28 2.83-2.79c0-1.6-1.28-2.83-2.83-2.83s-2.83 1.23-2.83 2.83z"/></g><circle cx="98.11" cy="81.82" r="31.39" fill="none" stroke="#eab00f" stroke-width="4.545" stroke-miterlimit="10"/></svg>