<svg version="1.1" id="Layer_1" xmlns="http://www.w3.org/2000/svg" x="0" y="0" viewBox="0 0 200 200" xml:space="preserve"><style>.st0{fill:#33aa3f}.st3{fill:#ffc555}</style><path class="st0" d="M185.22 121.3H68.55c-3.73 0-6.78-3.05-6.78-6.78V49.01c0-3.73 3.05-6.78 6.78-6.78h116.67c3.73 0 6.78 3.05 6.78 6.78v65.51c0 3.73-3.05 6.78-6.78 6.78z"/><ellipse cx="126.88" cy="81.77" rx="23.26" ry="27.91" fill="#8bd191"/><path class="st0" d="M128.96 98.41v4.14h-3.35v-4.14c-6.49-.67-9.92-5.19-10.34-9.42l4.94-1.34c.59 3.18 2.51 5.44 5.44 6.07v-9.67l-1.17-.25c-5.36-1.13-8.25-4.61-8.25-8.88 0-4.9 4.14-9 9.38-9.67v-4.27h3.35v4.31c5.9.71 8.46 4.69 9.09 7.87l-4.77 1.51c-.46-1.88-2.01-3.94-4.4-4.61v9.38l.8.17c5.78 1.21 8.83 4.61 8.83 9.42-.01 4.32-3.4 8.67-9.55 9.38zm-7.5-23.95c0 1.84 1.51 3.81 4.1 4.31l.08.04v-8.88c-2.46.55-4.18 2.44-4.18 4.53zm11.81 14.87c0-2.51-1.84-4.02-4.4-4.65v9.09c2.52-.51 4.4-2.14 4.4-4.44zM0 55.53h74.42v6.98H0zM16.28 74.14h58.14v7.63H16.28zM41.86 91.07h44.19v6.7H41.86z"/><path d="M84 51.77h-7.65c-2.4 0-4.35 1.95-4.35 4.35v49.31c0 2.4 1.95 4.35 4.35 4.35H98" fill="none" stroke="#8bd191" stroke-width="4" stroke-linecap="round" stroke-linejoin="round" stroke-miterlimit="10"/><g><circle class="st3" cx="162" cy="127.77" r="30"/><circle cx="170" cy="127.77" r="30" fill="#ffe855"/><circle cx="170" cy="127.77" r="22.88" fill="none" stroke="#ffc555" stroke-width="4" stroke-miterlimit="10"/><path class="st3" d="M88 113.77h48v8H88zM100 129.77h36v4h-36zM104 137.77h36v4h-36z"/></g></svg>