<svg xmlns="http://www.w3.org/2000/svg" viewBox="0 0 404 184"><path d="M198.43 105.66l8.93-2.4c1.28 6.83 5.93 11.26 12.99 11.26 5.86 0 10.66-3.3 10.66-8.26 0-4.8-3.75-7.51-8.71-8.56l-7.21-1.5c-9.68-1.95-14.94-8.33-14.94-15.99 0-9.68 8.86-17.64 19.44-17.64 13.29 0 18.77 8.03 19.97 14.41l-8.56 2.7c-1.05-4.2-5.03-8.86-11.26-8.86-5.71 0-10.13 4.05-10.13 8.56 0 3.3 2.7 6.83 7.43 7.81l7.43 1.43c10.51 2.1 16.07 8.33 16.07 17.04 0 8.56-7.36 17.19-20.34 17.19-13.73 0-20.94-8.85-21.77-17.19zM256.62 104.76c.15 6.16 5.86 10.44 11.71 10.44 4.88 0 9.01-1.88 10.66-6.76l7.43 2.55c-2.25 7.51-9.99 11.94-17.94 11.94-11.86 0-21.02-8.93-21.02-20.87 0-11.34 8.56-20.8 20.2-20.8 12.46 0 19.52 8.63 19.52 20.72 0 .9 0 1.8-.15 2.78h-30.41zm.45-6.75h21.02c-.3-5.71-4.88-9.08-10.44-9.08-5.48-.01-9.76 3.59-10.58 9.08zM302.79 104.76c.15 6.16 5.86 10.44 11.71 10.44 4.88 0 9.01-1.88 10.66-6.76l7.43 2.55c-2.25 7.51-9.99 11.94-17.94 11.94-11.86 0-21.02-8.93-21.02-20.87 0-11.34 8.56-20.8 20.19-20.8 12.46 0 19.52 8.63 19.52 20.72 0 .9 0 1.8-.15 2.78h-30.4zm.45-6.75h21.02c-.3-5.71-4.88-9.08-10.43-9.08-5.49-.01-9.77 3.59-10.59 9.08zM359.7 81.34c3.53 0 9.99 1.73 12.99 6.46V61.07h8.93v61.11h-8.71v-6.23c-3.15 5.18-10.21 6.83-13.44 6.83-11.56 0-19.74-9.91-19.74-20.72 0-10.06 7.43-20.72 19.97-20.72zm1.12 8.03c-7.28 0-12.01 5.78-12.01 12.69 0 6.91 4.8 12.61 12.01 12.61s12.01-5.71 12.01-12.61c0-6.91-4.8-12.69-12.01-12.69z"/><g><circle cx="92.29" cy="92" r="64.66" fill="#8cc63f"/><path d="M92.29 22.1c-38.54 0-69.9 31.36-69.9 69.9 0 38.54 31.36 69.9 69.9 69.9s69.9-31.36 69.9-69.9c0-38.54-31.36-69.9-69.9-69.9zm0 68.15c-2.9 0-5.24 2.35-5.24 5.24v31.24c-7.03-3.08-17.48-10.3-17.48-26 0-19.68 16.11-33.98 22.72-39.01C98.9 66.77 115 81.06 115 100.74c0 15.7-10.45 22.92-17.48 26V95.5c.01-2.9-2.34-5.25-5.23-5.25zm5.24 60.92V138c11.52-3.7 27.96-14.69 27.96-37.26 0-30.52-29.18-49.11-30.43-49.88l-2.78-1.74-2.78 1.74c-1.24.78-30.42 19.37-30.42 49.88 0 22.57 16.44 33.55 27.96 37.26v13.18C56.73 148.51 32.87 122.99 32.87 92c0-32.76 26.65-59.42 59.42-59.42S151.7 59.24 151.7 92c0 30.99-23.86 56.51-54.17 59.17z" fill="#15840c"/></g></svg>