<svg width="16" height="16" viewBox="0 0 16 16" fill="none" xmlns="http://www.w3.org/2000/svg">
<path fill-rule="evenodd" clip-rule="evenodd" d="M10.2812 13.7819L15.5312 8.53191C15.8219 8.23816 15.8219 7.76316 15.5312 7.46941L10.2812 2.21941C9.80937 1.75066 9 2.08191 9 2.75066V5.75066H4.75C4.33437 5.75066 4 6.08504 4 6.50066V9.50066C4 9.91629 4.33437 10.2507 4.75 10.2507H9V13.2507C9 13.9225 9.8125 14.2507 10.2812 13.7819ZM6 12.3756V13.6256C6 13.8319 5.83125 14.0006 5.625 14.0006H3C1.34375 14.0006 0 12.6569 0 11.0006V5.00062C0 3.34437 1.34375 2.00062 3 2.00062H5.625C5.83125 2.00062 6 2.16937 6 2.37562V3.62562C6 3.83187 5.83125 4.00062 5.625 4.00062H3C2.44688 4.00062 2 4.4475 2 5.00062V11.0006C2 11.5538 2.44688 12.0006 3 12.0006H5.625C5.83125 12.0006 6 12.1694 6 12.3756Z" fill="black"/>
<mask id="mask0" mask-type="alpha" maskUnits="userSpaceOnUse" x="0" y="2" width="16" height="13">
<path fill-rule="evenodd" clip-rule="evenodd" d="M10.2812 13.7819L15.5312 8.53191C15.8219 8.23816 15.8219 7.76316 15.5312 7.46941L10.2812 2.21941C9.80937 1.75066 9 2.08191 9 2.75066V5.75066H4.75C4.33437 5.75066 4 6.08504 4 6.50066V9.50066C4 9.91629 4.33437 10.2507 4.75 10.2507H9V13.2507C9 13.9225 9.8125 14.2507 10.2812 13.7819ZM6 12.3756V13.6256C6 13.8319 5.83125 14.0006 5.625 14.0006H3C1.34375 14.0006 0 12.6569 0 11.0006V5.00062C0 3.34437 1.34375 2.00062 3 2.00062H5.625C5.83125 2.00062 6 2.16937 6 2.37562V3.62562C6 3.83187 5.83125 4.00062 5.625 4.00062H3C2.44688 4.00062 2 4.4475 2 5.00062V11.0006C2 11.5538 2.44688 12.0006 3 12.0006H5.625C5.83125 12.0006 6 12.1694 6 12.3756Z" fill="white"/>
</mask>
<g mask="url(#mask0)">
<path fill-rule="evenodd" clip-rule="evenodd" d="M0 0H16V16H0V0Z" fill="#F4F4F8"/>
</g>
</svg>
