<svg width="27" height="27" viewBox="0 0 27 27" fill="none" xmlns="http://www.w3.org/2000/svg">
<g clip-path="url(#clip0)">
<path d="M27 27H4.61259C2.0688 27 0 24.9441 0 22.4161V0H1.96325V22.4161C1.96325 23.8741 3.15598 25.049 4.61259 25.049H27V27Z" fill="#3E680E"/>
<path d="M7.75805 11.7797C7.94804 11.5699 8.21192 11.4545 8.49691 11.4336C8.78189 11.4126 9.04577 11.5175 9.25688 11.7063L12.1384 14.3392L16.8777 9.54545C17.2682 9.14685 17.9015 9.12587 18.3237 9.48252L20.7514 11.5699L27.0106 4.1014V2.0979C27.0106 0.944056 26.0606 0 24.8996 0H5.94257C4.7815 0 3.83154 0.944056 3.83154 2.0979V16.0804L7.75805 11.7797Z" fill="#3E680E"/>
<path d="M21.6697 13.7518C21.4903 13.972 21.2264 14.0979 20.9414 14.1294C20.6564 14.1504 20.382 14.0559 20.1603 13.8776L17.6693 11.7378L12.9089 16.5525C12.5079 16.9511 11.864 16.972 11.4418 16.5944L8.5919 13.993L3.83154 19.1958V20.9266C3.83154 22.0804 4.7815 23.0245 5.94257 23.0245H24.889C26.0501 23.0245 27 22.0804 27 20.9266V7.39511L21.6697 13.7518Z" fill="#3E680E"/>
</g>
<defs>
<clipPath id="clip0">
<rect width="27" height="27" fill="white"/>
</clipPath>
</defs>
</svg>
