<svg width="24" height="27" viewBox="0 0 24 27" fill="none" xmlns="http://www.w3.org/2000/svg">
<path d="M0 27L2.99722 24.4572L5.99445 27L8.99167 24.4572L11.9889 27L14.9861 24.4572L17.9833 27L20.9917 24.4572L24 27V1.35873C24 0.611431 23.3006 0 22.4459 0H1.55412C0.699352 0 0 0.611431 0 1.35873V27Z" fill="#3E680E"/>
<path d="M7.93701 15.3731L9.04709 13.8785C9.92406 14.4608 10.69 14.7617 11.5004 14.7617C12.4773 14.7617 12.9102 14.4026 12.9102 13.7232C12.9102 12.1704 8.35884 12.1995 8.35884 9.48203C8.35884 7.73508 9.74645 6.61898 11.9222 6.61898C13.3986 6.61898 14.3977 7.15277 15.197 7.90007L13.9315 9.17146C13.3098 8.67649 12.777 8.41445 12.0554 8.41445C11.2229 8.41445 10.7788 8.70561 10.7788 9.38498C10.7788 10.8214 15.3302 10.6952 15.3302 13.5776C15.3302 15.3052 14.0203 16.5572 11.5004 16.5572C10.4014 16.5572 8.90278 16.1495 7.93701 15.3731ZM10.9675 5.15349H12.6438V7.31776H10.9675V5.15349ZM10.9675 15.6449H12.6438V18.0226H10.9675V15.6449Z" fill="#D6E291"/>
</svg>
