<svg width="26" height="20" viewBox="0 0 26 20" fill="none" xmlns="http://www.w3.org/2000/svg">
<path d="M16.4491 20C21.7238 20 25.9998 15.5228 25.9998 10C25.9998 4.47715 21.7238 0 16.4491 0C11.1744 0 6.89844 4.47715 6.89844 10C6.89844 15.5228 11.1744 20 16.4491 20Z" fill="#3E680E"/>
<path d="M8.72733 5.76225H3.18066V7.57714H8.72733V5.76225Z" fill="#3E680E"/>
<path d="M7.358 9.09256H0V10.9074H7.358V9.09256Z" fill="#3E680E"/>
<path d="M8.37183 13.5935H1.92383V15.4083H8.37183V13.5935Z" fill="#3E680E"/>
<path d="M13.3291 13.3485L14.2131 11.9056C14.9151 12.4682 15.5304 12.7586 16.1891 12.7586C16.9778 12.7586 17.3158 12.4138 17.3158 11.7604C17.3158 10.2722 13.6584 10.2994 13.6584 7.67694C13.6584 5.99818 14.7678 4.9274 16.5271 4.9274C17.7144 4.9274 18.5118 5.43557 19.1618 6.15244L18.1478 7.37749C17.6451 6.89655 17.2204 6.64246 16.6398 6.64246C15.9724 6.64246 15.6084 6.92377 15.6084 7.57713C15.6084 8.95644 19.2658 8.83847 19.2658 11.6062C19.2658 13.2668 18.2171 14.4737 16.1891 14.4737C15.3224 14.4828 14.1178 14.0926 13.3291 13.3485ZM15.7644 3.50272H17.1164V5.58983H15.7644V3.50272ZM15.7644 13.6116H17.1164V15.9074H15.7644V13.6116Z" fill="#D8EAA0"/>
</svg>
