<svg width="26" height="27" viewBox="0 0 26 27" fill="none" xmlns="http://www.w3.org/2000/svg">
<g clip-path="url(#clip0)">
<path d="M24.3534 20.7624H1.64661C0.740975 20.7624 0 20.0333 0 19.1422V7.68767C0 6.79658 0.740975 6.0675 1.64661 6.0675H24.3534C25.259 6.0675 26 6.79658 26 7.68767V19.1422C26 20.0333 25.259 20.7624 24.3534 20.7624Z" fill="#3E680E"/>
<path d="M10.7769 15.5374L11.4108 14.5734C11.913 14.9541 12.3494 15.1485 12.8187 15.1485C13.3785 15.1485 13.6255 14.9217 13.6255 14.4762C13.6255 13.4798 11.0156 13.496 11.0156 11.7381C11.0156 10.6121 11.806 9.89109 13.0574 9.89109C13.9054 9.89109 14.4735 10.2313 14.9346 10.7174L14.21 11.5356C13.8478 11.2115 13.5432 11.0414 13.1315 11.0414C12.654 11.0414 12.3988 11.2277 12.3988 11.6652C12.3988 12.5887 15.0086 12.5077 15.0086 14.3708C15.0086 15.4888 14.2594 16.2907 12.8104 16.2907C12.1929 16.2907 11.3367 16.0315 10.7769 15.5374ZM12.514 8.9433H13.4773V10.3447H12.514V8.9433ZM12.514 15.7075H13.4773V17.2466H12.514V15.7075Z" fill="#D6E291"/>
<path d="M2.12421 8.89468C2.53798 8.89468 2.87342 8.56464 2.87342 8.15751C2.87342 7.75038 2.53798 7.42033 2.12421 7.42033C1.71043 7.42033 1.375 7.75038 1.375 8.15751C1.375 8.56464 1.71043 8.89468 2.12421 8.89468Z" fill="#D6E291"/>
<path d="M23.9333 19.5797C24.3471 19.5797 24.6825 19.2496 24.6825 18.8425C24.6825 18.4354 24.3471 18.1053 23.9333 18.1053C23.5195 18.1053 23.1841 18.4354 23.1841 18.8425C23.1841 19.2496 23.5195 19.5797 23.9333 19.5797Z" fill="#D6E291"/>
<path d="M6.84974 7.9307C6.68507 6.73178 6.85797 5.47615 7.44252 4.31773C8.99033 1.21512 12.8105 -0.0729047 15.9637 1.45815C16.7047 1.81458 17.3387 2.29253 17.8573 2.85149" stroke="#3E680E" stroke-width="2" stroke-miterlimit="10"/>
<path d="M15.9639 3.44285L19.183 5.05491L18.9936 1.50676L15.9639 3.44285Z" fill="#3E680E"/>
<path d="M19.0349 19.0693C19.1996 20.2682 19.0267 21.5239 18.4422 22.6823C16.8943 25.7849 13.0742 27.0729 9.92095 25.5419C9.17997 25.1854 8.54603 24.7075 8.02734 24.1485" stroke="#3E680E" stroke-width="2" stroke-miterlimit="10"/>
<path d="M9.91249 23.5572L6.69336 21.9451L6.88272 25.4933L9.91249 23.5572Z" fill="#3E680E"/>
</g>
<defs>
<clipPath id="clip0">
<rect width="26" height="27" fill="white"/>
</clipPath>
</defs>
</svg>
